STARTFONT 2.1
FONT -Adobe-Helvetica-Bold-R-Normal--10-100-75-75-P-60-ISO10646-1
SIZE 10 75 75
FONTBOUNDINGBOX 12 19 -1 -5
STARTPROPERTIES 29
FOUNDRY "Adobe"
FAMILY_NAME "Helvetica"
WEIGHT_NAME "Bold"
SLANT "R"
SETWIDTH_NAME "Normal"
ADD_STYLE_NAME ""
PIXEL_SIZE 10
POINT_SIZE 100
RESOLUTION_X 75
RESOLUTION_Y 75
SPACING "P"
AVERAGE_WIDTH 60
CHARSET_REGISTRY "ISO10646"
CHARSET_ENCODING "1"
CAP_HEIGHT 8
X_HEIGHT 6
FACE_NAME "Helvetica Bold"
COPYRIGHT "Copyright (c) 1984, 1987 Adobe Systems Incorporated. All Rights Reserved. Copyright (c) 1988, 1991 Digital Equipment Corporation. All Rights Reserved."
NOTICE "Helvetica is a trademark of Linotype-Hell AG and/or its subsidiaries.  "
_DEC_DEVICE_FONTNAMES "PS=Helvetica-Bold"
RELATIVE_SETWIDTH 50
RELATIVE_WEIGHT 70
FULL_NAME "Helvetica Bold"
WEIGHT 10
RESOLUTION 103
QUAD_WIDTH 6
FONT_ASCENT 14
FONT_DESCENT 5
_XMBDFED_INFO "Edited with xmbdfed 4.5."
ENDPROPERTIES
CHARS 754
STARTCHAR char0
ENCODING 0
SWIDTH 672 0
DWIDTH 7 0
BBX 5 7 0 0
BITMAP
A8
00
88
00
88
00
A8
ENDCHAR
STARTCHAR char32
ENCODING 32
SWIDTH 288 0
DWIDTH 3 0
BBX 0 0 0 0
BITMAP
ENDCHAR
STARTCHAR char33
ENCODING 33
SWIDTH 384 0
DWIDTH 4 0
BBX 2 8 1 0
BITMAP
C0
C0
C0
C0
80
80
00
C0
ENDCHAR
STARTCHAR char34
ENCODING 34
SWIDTH 480 0
DWIDTH 5 0
BBX 3 3 1 5
BITMAP
A0
A0
A0
ENDCHAR
STARTCHAR char35
ENCODING 35
SWIDTH 576 0
DWIDTH 6 0
BBX 6 7 0 0
BITMAP
50
50
FC
50
F8
A0
A0
ENDCHAR
STARTCHAR char36
ENCODING 36
SWIDTH 576 0
DWIDTH 6 0
BBX 5 9 0 -1
BITMAP
20
70
A8
E0
70
38
A8
70
20
ENDCHAR
STARTCHAR char37
ENCODING 37
SWIDTH 768 0
DWIDTH 8 0
BBX 7 8 0 0
BITMAP
62
B4
68
10
10
2C
56
8C
ENDCHAR
STARTCHAR char38
ENCODING 38
SWIDTH 768 0
DWIDTH 8 0
BBX 7 8 0 0
BITMAP
70
D8
D8
70
DE
CC
DC
76
ENDCHAR
STARTCHAR char39
ENCODING 39
SWIDTH 288 0
DWIDTH 3 0
BBX 1 3 1 5
BITMAP
80
80
80
ENDCHAR
STARTCHAR char40
ENCODING 40
SWIDTH 384 0
DWIDTH 4 0
BBX 3 10 0 -2
BITMAP
20
60
40
C0
C0
C0
C0
40
60
20
ENDCHAR
STARTCHAR char41
ENCODING 41
SWIDTH 384 0
DWIDTH 4 0
BBX 3 10 0 -2
BITMAP
80
C0
40
60
60
60
60
40
C0
80
ENDCHAR
STARTCHAR char42
ENCODING 42
SWIDTH 384 0
DWIDTH 4 0
BBX 3 3 0 5
BITMAP
A0
40
A0
ENDCHAR
STARTCHAR char43
ENCODING 43
SWIDTH 576 0
DWIDTH 6 0
BBX 6 5 0 1
BITMAP
30
30
FC
30
30
ENDCHAR
STARTCHAR char44
ENCODING 44
SWIDTH 288 0
DWIDTH 3 0
BBX 2 4 0 -2
BITMAP
40
40
40
80
ENDCHAR
STARTCHAR char45
ENCODING 45
SWIDTH 480 0
DWIDTH 5 0
BBX 4 1 0 3
BITMAP
F0
ENDCHAR
STARTCHAR char46
ENCODING 46
SWIDTH 288 0
DWIDTH 3 0
BBX 1 2 1 0
BITMAP
80
80
ENDCHAR
STARTCHAR char47
ENCODING 47
SWIDTH 384 0
DWIDTH 4 0
BBX 4 8 0 0
BITMAP
10
10
20
20
40
40
80
80
ENDCHAR
STARTCHAR char48
ENCODING 48
SWIDTH 576 0
DWIDTH 6 0
BBX 5 8 0 0
BITMAP
70
D8
D8
D8
D8
D8
D8
70
ENDCHAR
STARTCHAR char49
ENCODING 49
SWIDTH 576 0
DWIDTH 6 0
BBX 4 8 0 0
BITMAP
30
F0
30
30
30
30
30
30
ENDCHAR
STARTCHAR char50
ENCODING 50
SWIDTH 576 0
DWIDTH 6 0
BBX 5 8 0 0
BITMAP
70
D8
18
18
30
60
C0
F8
ENDCHAR
STARTCHAR char51
ENCODING 51
SWIDTH 576 0
DWIDTH 6 0
BBX 5 8 0 0
BITMAP
70
D8
18
30
18
18
D8
70
ENDCHAR
STARTCHAR char52
ENCODING 52
SWIDTH 576 0
DWIDTH 6 0
BBX 6 8 0 0
BITMAP
18
38
58
58
98
FC
18
18
ENDCHAR
STARTCHAR char53
ENCODING 53
SWIDTH 576 0
DWIDTH 6 0
BBX 5 8 0 0
BITMAP
F8
C0
C0
F0
18
98
D8
70
ENDCHAR
STARTCHAR char54
ENCODING 54
SWIDTH 576 0
DWIDTH 6 0
BBX 5 8 0 0
BITMAP
70
D8
C0
F0
D8
D8
D8
70
ENDCHAR
STARTCHAR char55
ENCODING 55
SWIDTH 576 0
DWIDTH 6 0
BBX 5 8 0 0
BITMAP
F8
18
18
30
30
30
60
60
ENDCHAR
STARTCHAR char56
ENCODING 56
SWIDTH 576 0
DWIDTH 6 0
BBX 5 8 0 0
BITMAP
70
D8
D8
70
D8
D8
D8
70
ENDCHAR
STARTCHAR char57
ENCODING 57
SWIDTH 576 0
DWIDTH 6 0
BBX 5 8 0 0
BITMAP
70
D8
D8
D8
78
18
D8
70
ENDCHAR
STARTCHAR char58
ENCODING 58
SWIDTH 288 0
DWIDTH 3 0
BBX 1 6 1 0
BITMAP
80
80
00
00
80
80
ENDCHAR
STARTCHAR char59
ENCODING 59
SWIDTH 288 0
DWIDTH 3 0
BBX 2 8 0 -2
BITMAP
40
40
00
00
40
40
40
80
ENDCHAR
STARTCHAR char60
ENCODING 60
SWIDTH 480 0
DWIDTH 5 0
BBX 4 5 0 1
BITMAP
30
60
C0
60
30
ENDCHAR
STARTCHAR char61
ENCODING 61
SWIDTH 576 0
DWIDTH 6 0
BBX 5 3 0 2
BITMAP
F8
00
F8
ENDCHAR
STARTCHAR char62
ENCODING 62
SWIDTH 480 0
DWIDTH 5 0
BBX 4 5 0 1
BITMAP
C0
60
30
60
C0
ENDCHAR
STARTCHAR char63
ENCODING 63
SWIDTH 576 0
DWIDTH 6 0
BBX 5 8 0 0
BITMAP
70
D8
18
30
60
60
00
60
ENDCHAR
STARTCHAR char64
ENCODING 64
SWIDTH 1056 0
DWIDTH 11 0
BBX 10 9 0 -2
BITMAP
1F00
6080
4D40
9240
A240
A480
9B00
4000
3E00
ENDCHAR
STARTCHAR char65
ENCODING 65
SWIDTH 768 0
DWIDTH 8 0
BBX 7 8 0 0
BITMAP
38
38
6C
6C
6C
FE
C6
C6
ENDCHAR
STARTCHAR char66
ENCODING 66
SWIDTH 672 0
DWIDTH 7 0
BBX 6 8 0 0
BITMAP
F8
CC
CC
F8
CC
CC
CC
F8
ENDCHAR
STARTCHAR char67
ENCODING 67
SWIDTH 768 0
DWIDTH 8 0
BBX 7 8 0 0
BITMAP
3C
66
C2
C0
C0
C2
66
3C
ENDCHAR
STARTCHAR char68
ENCODING 68
SWIDTH 672 0
DWIDTH 7 0
BBX 6 8 0 0
BITMAP
F0
D8
CC
CC
CC
CC
D8
F0
ENDCHAR
STARTCHAR char69
ENCODING 69
SWIDTH 576 0
DWIDTH 6 0
BBX 5 8 0 0
BITMAP
F8
C0
C0
F8
C0
C0
C0
F8
ENDCHAR
STARTCHAR char70
ENCODING 70
SWIDTH 576 0
DWIDTH 6 0
BBX 5 8 0 0
BITMAP
F8
C0
C0
F0
C0
C0
C0
C0
ENDCHAR
STARTCHAR char71
ENCODING 71
SWIDTH 768 0
DWIDTH 8 0
BBX 7 8 0 0
BITMAP
3C
66
C2
C0
CE
C6
66
3A
ENDCHAR
STARTCHAR char72
ENCODING 72
SWIDTH 672 0
DWIDTH 7 0
BBX 6 8 0 0
BITMAP
CC
CC
CC
FC
CC
CC
CC
CC
ENDCHAR
STARTCHAR char73
ENCODING 73
SWIDTH 288 0
DWIDTH 3 0
BBX 2 8 0 0
BITMAP
C0
C0
C0
C0
C0
C0
C0
C0
ENDCHAR
STARTCHAR char74
ENCODING 74
SWIDTH 576 0
DWIDTH 6 0
BBX 5 8 0 0
BITMAP
18
18
18
18
18
18
D8
70
ENDCHAR
STARTCHAR char75
ENCODING 75
SWIDTH 672 0
DWIDTH 7 0
BBX 7 8 0 0
BITMAP
CC
D8
F0
E0
F0
D8
CC
C6
ENDCHAR
STARTCHAR char76
ENCODING 76
SWIDTH 576 0
DWIDTH 6 0
BBX 5 8 0 0
BITMAP
C0
C0
C0
C0
C0
C0
C0
F8
ENDCHAR
STARTCHAR char77
ENCODING 77
SWIDTH 960 0
DWIDTH 10 0
BBX 9 8 0 0
BITMAP
C180
E380
E380
F780
D580
DD80
C980
C980
ENDCHAR
STARTCHAR char78
ENCODING 78
SWIDTH 768 0
DWIDTH 8 0
BBX 7 8 0 0
BITMAP
C6
E6
E6
D6
D6
CE
CE
C6
ENDCHAR
STARTCHAR char79
ENCODING 79
SWIDTH 768 0
DWIDTH 8 0
BBX 7 8 0 0
BITMAP
38
6C
C6
C6
C6
C6
6C
38
ENDCHAR
STARTCHAR char80
ENCODING 80
SWIDTH 672 0
DWIDTH 7 0
BBX 6 8 0 0
BITMAP
F8
CC
CC
CC
F8
C0
C0
C0
ENDCHAR
STARTCHAR char81
ENCODING 81
SWIDTH 768 0
DWIDTH 8 0
BBX 7 9 0 -1
BITMAP
38
6C
C6
C6
C6
D6
6C
3C
02
ENDCHAR
STARTCHAR char82
ENCODING 82
SWIDTH 672 0
DWIDTH 7 0
BBX 6 8 0 0
BITMAP
F8
CC
CC
CC
F8
CC
CC
CC
ENDCHAR
STARTCHAR char83
ENCODING 83
SWIDTH 672 0
DWIDTH 7 0
BBX 6 8 0 0
BITMAP
78
CC
E0
78
1C
8C
CC
78
ENDCHAR
STARTCHAR char84
ENCODING 84
SWIDTH 672 0
DWIDTH 7 0
BBX 6 8 0 0
BITMAP
FC
30
30
30
30
30
30
30
ENDCHAR
STARTCHAR char85
ENCODING 85
SWIDTH 672 0
DWIDTH 7 0
BBX 6 8 0 0
BITMAP
CC
CC
CC
CC
CC
CC
CC
78
ENDCHAR
STARTCHAR char86
ENCODING 86
SWIDTH 768 0
DWIDTH 8 0
BBX 7 8 0 0
BITMAP
C6
C6
6C
6C
6C
38
38
10
ENDCHAR
STARTCHAR char87
ENCODING 87
SWIDTH 1056 0
DWIDTH 11 0
BBX 10 8 0 0
BITMAP
CCC0
CCC0
CCC0
6D80
6D80
7F80
3300
2100
ENDCHAR
STARTCHAR char88
ENCODING 88
SWIDTH 768 0
DWIDTH 8 0
BBX 7 8 0 0
BITMAP
C6
C6
6C
38
38
6C
C6
C6
ENDCHAR
STARTCHAR char89
ENCODING 89
SWIDTH 864 0
DWIDTH 9 0
BBX 8 8 0 0
BITMAP
C3
C3
66
66
3C
18
18
18
ENDCHAR
STARTCHAR char90
ENCODING 90
SWIDTH 672 0
DWIDTH 7 0
BBX 6 8 0 0
BITMAP
FC
0C
18
30
70
60
C0
FC
ENDCHAR
STARTCHAR char91
ENCODING 91
SWIDTH 384 0
DWIDTH 4 0
BBX 3 10 0 -2
BITMAP
E0
C0
C0
C0
C0
C0
C0
C0
C0
E0
ENDCHAR
STARTCHAR char92
ENCODING 92
SWIDTH 384 0
DWIDTH 4 0
BBX 4 8 0 0
BITMAP
80
80
40
40
20
20
10
10
ENDCHAR
STARTCHAR char93
ENCODING 93
SWIDTH 384 0
DWIDTH 4 0
BBX 3 10 0 -2
BITMAP
E0
60
60
60
60
60
60
60
60
E0
ENDCHAR
STARTCHAR char94
ENCODING 94
SWIDTH 480 0
DWIDTH 5 0
BBX 5 4 0 4
BITMAP
20
70
D8
88
ENDCHAR
STARTCHAR char95
ENCODING 95
SWIDTH 576 0
DWIDTH 6 0
BBX 6 1 0 -2
BITMAP
FC
ENDCHAR
STARTCHAR char96
ENCODING 96
SWIDTH 288 0
DWIDTH 3 0
BBX 2 2 0 6
BITMAP
80
40
ENDCHAR
STARTCHAR char97
ENCODING 97
SWIDTH 576 0
DWIDTH 6 0
BBX 6 6 0 0
BITMAP
70
98
78
D8
D8
6C
ENDCHAR
STARTCHAR char98
ENCODING 98
SWIDTH 576 0
DWIDTH 6 0
BBX 5 8 0 0
BITMAP
C0
C0
F0
D8
C8
C8
D8
F0
ENDCHAR
STARTCHAR char99
ENCODING 99
SWIDTH 480 0
DWIDTH 5 0
BBX 4 6 0 0
BITMAP
70
D0
C0
C0
D0
70
ENDCHAR
STARTCHAR char100
ENCODING 100
SWIDTH 576 0
DWIDTH 6 0
BBX 5 8 0 0
BITMAP
18
18
78
D8
98
98
D8
78
ENDCHAR
STARTCHAR char101
ENCODING 101
SWIDTH 576 0
DWIDTH 6 0
BBX 5 6 0 0
BITMAP
70
D8
F8
C0
D8
70
ENDCHAR
STARTCHAR char102
ENCODING 102
SWIDTH 384 0
DWIDTH 4 0
BBX 4 8 0 0
BITMAP
70
C0
E0
C0
C0
C0
C0
C0
ENDCHAR
STARTCHAR char103
ENCODING 103
SWIDTH 576 0
DWIDTH 6 0
BBX 5 8 0 -2
BITMAP
68
D8
98
98
D8
78
18
70
ENDCHAR
STARTCHAR char104
ENCODING 104
SWIDTH 576 0
DWIDTH 6 0
BBX 5 8 0 0
BITMAP
C0
C0
F0
D8
D8
D8
D8
D8
ENDCHAR
STARTCHAR char105
ENCODING 105
SWIDTH 288 0
DWIDTH 3 0
BBX 2 8 0 0
BITMAP
C0
00
C0
C0
C0
C0
C0
C0
ENDCHAR
STARTCHAR char106
ENCODING 106
SWIDTH 288 0
DWIDTH 3 0
BBX 2 10 0 -2
BITMAP
C0
00
C0
C0
C0
C0
C0
C0
C0
80
ENDCHAR
STARTCHAR char107
ENCODING 107
SWIDTH 576 0
DWIDTH 6 0
BBX 6 8 0 0
BITMAP
C0
C0
D8
F0
E0
F0
D8
CC
ENDCHAR
STARTCHAR char108
ENCODING 108
SWIDTH 288 0
DWIDTH 3 0
BBX 2 8 0 0
BITMAP
C0
C0
C0
C0
C0
C0
C0
C0
ENDCHAR
STARTCHAR char109
ENCODING 109
SWIDTH 864 0
DWIDTH 9 0
BBX 8 6 0 0
BITMAP
B6
DB
DB
DB
DB
DB
ENDCHAR
STARTCHAR char110
ENCODING 110
SWIDTH 576 0
DWIDTH 6 0
BBX 5 6 0 0
BITMAP
B0
D8
D8
D8
D8
D8
ENDCHAR
STARTCHAR char111
ENCODING 111
SWIDTH 576 0
DWIDTH 6 0
BBX 5 6 0 0
BITMAP
70
D8
D8
D8
D8
70
ENDCHAR
STARTCHAR char112
ENCODING 112
SWIDTH 576 0
DWIDTH 6 0
BBX 5 8 0 -2
BITMAP
B0
D8
C8
C8
D8
F0
C0
C0
ENDCHAR
STARTCHAR char113
ENCODING 113
SWIDTH 576 0
DWIDTH 6 0
BBX 5 8 0 -2
BITMAP
68
D8
98
98
D8
78
18
18
ENDCHAR
STARTCHAR char114
ENCODING 114
SWIDTH 384 0
DWIDTH 4 0
BBX 4 6 0 0
BITMAP
B0
E0
C0
C0
C0
C0
ENDCHAR
STARTCHAR char115
ENCODING 115
SWIDTH 576 0
DWIDTH 6 0
BBX 5 6 0 0
BITMAP
70
D8
70
18
D8
70
ENDCHAR
STARTCHAR char116
ENCODING 116
SWIDTH 384 0
DWIDTH 4 0
BBX 3 8 0 0
BITMAP
C0
C0
E0
C0
C0
C0
C0
60
ENDCHAR
STARTCHAR char117
ENCODING 117
SWIDTH 576 0
DWIDTH 6 0
BBX 5 6 0 0
BITMAP
D8
D8
D8
D8
D8
68
ENDCHAR
STARTCHAR char118
ENCODING 118
SWIDTH 576 0
DWIDTH 6 0
BBX 5 6 0 0
BITMAP
D8
D8
D8
50
70
20
ENDCHAR
STARTCHAR char119
ENCODING 119
SWIDTH 768 0
DWIDTH 8 0
BBX 7 6 0 0
BITMAP
D6
D6
D6
6C
6C
6C
ENDCHAR
STARTCHAR char120
ENCODING 120
SWIDTH 672 0
DWIDTH 7 0
BBX 6 6 0 0
BITMAP
CC
78
30
78
CC
CC
ENDCHAR
STARTCHAR char121
ENCODING 121
SWIDTH 576 0
DWIDTH 6 0
BBX 5 8 0 -2
BITMAP
D8
D8
D8
D8
78
30
30
60
ENDCHAR
STARTCHAR char122
ENCODING 122
SWIDTH 576 0
DWIDTH 6 0
BBX 5 6 0 0
BITMAP
F8
18
30
60
C0
F8
ENDCHAR
STARTCHAR char123
ENCODING 123
SWIDTH 480 0
DWIDTH 5 0
BBX 4 10 0 -2
BITMAP
30
60
60
60
C0
60
60
60
60
30
ENDCHAR
STARTCHAR char124
ENCODING 124
SWIDTH 288 0
DWIDTH 3 0
BBX 1 10 1 -2
BITMAP
80
80
80
80
80
80
80
80
80
80
ENDCHAR
STARTCHAR char125
ENCODING 125
SWIDTH 480 0
DWIDTH 5 0
BBX 4 10 0 -2
BITMAP
C0
60
60
60
30
60
60
60
60
C0
ENDCHAR
STARTCHAR char126
ENCODING 126
SWIDTH 576 0
DWIDTH 6 0
BBX 6 2 0 2
BITMAP
6C
D8
ENDCHAR
STARTCHAR char160
ENCODING 160
SWIDTH 288 0
DWIDTH 3 0
BBX 0 0 0 0
BITMAP
ENDCHAR
STARTCHAR char161
ENCODING 161
SWIDTH 384 0
DWIDTH 4 0
BBX 2 8 1 -2
BITMAP
C0
00
40
40
C0
C0
C0
C0
ENDCHAR
STARTCHAR char162
ENCODING 162
SWIDTH 576 0
DWIDTH 6 0
BBX 5 8 0 -1
BITMAP
10
70
D8
A0
A0
D8
70
40
ENDCHAR
STARTCHAR char163
ENCODING 163
SWIDTH 576 0
DWIDTH 6 0
BBX 5 8 0 0
BITMAP
38
68
60
F0
60
60
68
D8
ENDCHAR
STARTCHAR char164
ENCODING 164
SWIDTH 576 0
DWIDTH 6 0
BBX 5 6 0 1
BITMAP
D8
70
D8
D8
70
D8
ENDCHAR
STARTCHAR char165
ENCODING 165
SWIDTH 672 0
DWIDTH 7 0
BBX 6 8 0 0
BITMAP
84
CC
48
78
FC
30
FC
30
ENDCHAR
STARTCHAR char166
ENCODING 166
SWIDTH 288 0
DWIDTH 3 0
BBX 1 10 1 -2
BITMAP
80
80
80
80
00
00
80
80
80
80
ENDCHAR
STARTCHAR char167
ENCODING 167
SWIDTH 576 0
DWIDTH 6 0
BBX 5 10 0 -2
BITMAP
70
C8
E0
70
98
C8
70
38
98
70
ENDCHAR
STARTCHAR char168
ENCODING 168
SWIDTH 288 0
DWIDTH 3 0
BBX 3 1 0 7
BITMAP
A0
ENDCHAR
STARTCHAR char169
ENCODING 169
SWIDTH 960 0
DWIDTH 10 0
BBX 8 8 1 0
BITMAP
3C
42
99
A5
A1
9D
42
3C
ENDCHAR
STARTCHAR char170
ENCODING 170
SWIDTH 480 0
DWIDTH 5 0
BBX 3 5 1 3
BITMAP
E0
20
A0
00
E0
ENDCHAR
STARTCHAR char171
ENCODING 171
SWIDTH 672 0
DWIDTH 7 0
BBX 6 3 0 1
BITMAP
6C
D8
6C
ENDCHAR
STARTCHAR char172
ENCODING 172
SWIDTH 672 0
DWIDTH 7 0
BBX 5 3 1 2
BITMAP
F8
08
08
ENDCHAR
STARTCHAR char173
ENCODING 173
SWIDTH 480 0
DWIDTH 5 0
BBX 4 1 0 3
BITMAP
F0
ENDCHAR
STARTCHAR char174
ENCODING 174
SWIDTH 960 0
DWIDTH 10 0
BBX 8 8 1 0
BITMAP
3C
42
BD
A5
B9
A5
42
3C
ENDCHAR
STARTCHAR char175
ENCODING 175
SWIDTH 288 0
DWIDTH 3 0
BBX 3 1 0 7
BITMAP
E0
ENDCHAR
STARTCHAR char176
ENCODING 176
SWIDTH 384 0
DWIDTH 4 0
BBX 3 3 1 4
BITMAP
60
A0
C0
ENDCHAR
STARTCHAR char177
ENCODING 177
SWIDTH 576 0
DWIDTH 6 0
BBX 6 7 0 0
BITMAP
30
30
FC
30
30
00
FC
ENDCHAR
STARTCHAR char178
ENCODING 178
SWIDTH 288 0
DWIDTH 3 0
BBX 3 4 0 3
BITMAP
60
A0
40
E0
ENDCHAR
STARTCHAR char179
ENCODING 179
SWIDTH 288 0
DWIDTH 3 0
BBX 3 4 0 3
BITMAP
E0
40
20
C0
ENDCHAR
STARTCHAR char180
ENCODING 180
SWIDTH 288 0
DWIDTH 3 0
BBX 2 2 0 7
BITMAP
40
80
ENDCHAR
STARTCHAR char181
ENCODING 181
SWIDTH 576 0
DWIDTH 6 0
BBX 5 8 0 -2
BITMAP
D8
D8
D8
D8
D8
E8
C0
C0
ENDCHAR
STARTCHAR char182
ENCODING 182
SWIDTH 576 0
DWIDTH 6 0
BBX 6 10 0 -2
BITMAP
7C
E8
E8
E8
68
28
28
28
28
28
ENDCHAR
STARTCHAR char183
ENCODING 183
SWIDTH 288 0
DWIDTH 3 0
BBX 2 1 0 3
BITMAP
C0
ENDCHAR
STARTCHAR char184
ENCODING 184
SWIDTH 288 0
DWIDTH 3 0
BBX 2 2 0 -2
BITMAP
40
C0
ENDCHAR
STARTCHAR char185
ENCODING 185
SWIDTH 288 0
DWIDTH 3 0
BBX 2 4 0 3
BITMAP
40
C0
40
40
ENDCHAR
STARTCHAR char186
ENCODING 186
SWIDTH 480 0
DWIDTH 5 0
BBX 3 5 1 3
BITMAP
E0
A0
E0
00
E0
ENDCHAR
STARTCHAR char187
ENCODING 187
SWIDTH 672 0
DWIDTH 7 0
BBX 6 3 0 1
BITMAP
D8
6C
D8
ENDCHAR
STARTCHAR char188
ENCODING 188
SWIDTH 864 0
DWIDTH 9 0
BBX 8 8 0 0
BITMAP
42
C4
48
48
12
26
2F
42
ENDCHAR
STARTCHAR char189
ENCODING 189
SWIDTH 864 0
DWIDTH 9 0
BBX 7 8 0 0
BITMAP
42
C4
48
48
16
2A
24
4E
ENDCHAR
STARTCHAR char190
ENCODING 190
SWIDTH 864 0
DWIDTH 9 0
BBX 8 8 0 0
BITMAP
E2
44
28
C8
12
26
2F
42
ENDCHAR
STARTCHAR char191
ENCODING 191
SWIDTH 576 0
DWIDTH 6 0
BBX 5 8 0 -2
BITMAP
30
00
30
30
60
C0
D8
70
ENDCHAR
STARTCHAR char192
ENCODING 192
SWIDTH 768 0
DWIDTH 8 0
BBX 7 11 0 0
BITMAP
20
10
00
38
38
6C
6C
6C
FE
C6
C6
ENDCHAR
STARTCHAR char193
ENCODING 193
SWIDTH 768 0
DWIDTH 8 0
BBX 7 11 0 0
BITMAP
08
10
00
38
38
6C
6C
6C
FE
C6
C6
ENDCHAR
STARTCHAR char194
ENCODING 194
SWIDTH 768 0
DWIDTH 8 0
BBX 7 11 0 0
BITMAP
10
28
00
38
38
6C
6C
6C
FE
C6
C6
ENDCHAR
STARTCHAR char195
ENCODING 195
SWIDTH 768 0
DWIDTH 8 0
BBX 7 11 0 0
BITMAP
14
28
00
38
38
6C
6C
6C
FE
C6
C6
ENDCHAR
STARTCHAR char196
ENCODING 196
SWIDTH 768 0
DWIDTH 8 0
BBX 7 10 0 0
BITMAP
28
00
38
38
6C
6C
6C
FE
C6
C6
ENDCHAR
STARTCHAR char197
ENCODING 197
SWIDTH 768 0
DWIDTH 8 0
BBX 7 11 0 0
BITMAP
10
28
10
38
38
6C
6C
6C
FE
C6
C6
ENDCHAR
STARTCHAR char198
ENCODING 198
SWIDTH 960 0
DWIDTH 10 0
BBX 9 8 0 0
BITMAP
3F80
3C00
6C00
6F80
6C00
FC00
CC00
CF80
ENDCHAR
STARTCHAR char199
ENCODING 199
SWIDTH 768 0
DWIDTH 8 0
BBX 7 10 0 -2
BITMAP
3C
66
C2
C0
C0
C2
66
3C
10
30
ENDCHAR
STARTCHAR char200
ENCODING 200
SWIDTH 576 0
DWIDTH 6 0
BBX 5 11 0 0
BITMAP
40
20
00
F8
C0
C0
F8
C0
C0
C0
F8
ENDCHAR
STARTCHAR char201
ENCODING 201
SWIDTH 576 0
DWIDTH 6 0
BBX 5 11 0 0
BITMAP
10
20
00
F8
C0
C0
F8
C0
C0
C0
F8
ENDCHAR
STARTCHAR char202
ENCODING 202
SWIDTH 576 0
DWIDTH 6 0
BBX 5 11 0 0
BITMAP
20
50
00
F8
C0
C0
F8
C0
C0
C0
F8
ENDCHAR
STARTCHAR char203
ENCODING 203
SWIDTH 576 0
DWIDTH 6 0
BBX 5 10 0 0
BITMAP
50
00
F8
C0
C0
F8
C0
C0
C0
F8
ENDCHAR
STARTCHAR char204
ENCODING 204
SWIDTH 288 0
DWIDTH 3 0
BBX 2 11 0 0
BITMAP
80
40
00
C0
C0
C0
C0
C0
C0
C0
C0
ENDCHAR
STARTCHAR char205
ENCODING 205
SWIDTH 288 0
DWIDTH 3 0
BBX 2 11 0 0
BITMAP
40
80
00
C0
C0
C0
C0
C0
C0
C0
C0
ENDCHAR
STARTCHAR char206
ENCODING 206
SWIDTH 288 0
DWIDTH 3 0
BBX 3 11 0 0
BITMAP
40
A0
00
C0
C0
C0
C0
C0
C0
C0
C0
ENDCHAR
STARTCHAR char207
ENCODING 207
SWIDTH 288 0
DWIDTH 3 0
BBX 3 10 0 0
BITMAP
A0
00
C0
C0
C0
C0
C0
C0
C0
C0
ENDCHAR
STARTCHAR char208
ENCODING 208
SWIDTH 672 0
DWIDTH 7 0
BBX 6 8 0 0
BITMAP
F0
D8
CC
EC
CC
CC
D8
F0
ENDCHAR
STARTCHAR char209
ENCODING 209
SWIDTH 768 0
DWIDTH 8 0
BBX 7 11 0 0
BITMAP
14
28
00
C6
C6
E6
D6
D6
CE
CE
C6
ENDCHAR
STARTCHAR char210
ENCODING 210
SWIDTH 768 0
DWIDTH 8 0
BBX 7 11 0 0
BITMAP
20
10
00
38
6C
C6
C6
C6
C6
6C
38
ENDCHAR
STARTCHAR char211
ENCODING 211
SWIDTH 768 0
DWIDTH 8 0
BBX 7 11 0 0
BITMAP
04
08
00
38
6C
C6
C6
C6
C6
6C
38
ENDCHAR
STARTCHAR char212
ENCODING 212
SWIDTH 768 0
DWIDTH 8 0
BBX 7 11 0 0
BITMAP
10
28
00
38
6C
C6
C6
C6
C6
6C
38
ENDCHAR
STARTCHAR char213
ENCODING 213
SWIDTH 768 0
DWIDTH 8 0
BBX 7 11 0 0
BITMAP
14
28
00
38
6C
C6
C6
C6
C6
6C
38
ENDCHAR
STARTCHAR char214
ENCODING 214
SWIDTH 768 0
DWIDTH 8 0
BBX 7 10 0 0
BITMAP
28
00
38
6C
C6
C6
C6
C6
6C
38
ENDCHAR
STARTCHAR char215
ENCODING 215
SWIDTH 576 0
DWIDTH 6 0
BBX 6 5 0 1
BITMAP
CC
78
30
78
CC
ENDCHAR
STARTCHAR char216
ENCODING 216
SWIDTH 768 0
DWIDTH 8 0
BBX 7 8 0 0
BITMAP
3A
6C
CE
D6
D6
E6
6C
B8
ENDCHAR
STARTCHAR char217
ENCODING 217
SWIDTH 672 0
DWIDTH 7 0
BBX 6 11 0 0
BITMAP
20
10
00
CC
CC
CC
CC
CC
CC
CC
78
ENDCHAR
STARTCHAR char218
ENCODING 218
SWIDTH 672 0
DWIDTH 7 0
BBX 6 11 0 0
BITMAP
08
10
00
CC
CC
CC
CC
CC
CC
CC
78
ENDCHAR
STARTCHAR char219
ENCODING 219
SWIDTH 672 0
DWIDTH 7 0
BBX 6 11 0 0
BITMAP
10
28
00
CC
CC
CC
CC
CC
CC
CC
78
ENDCHAR
STARTCHAR char220
ENCODING 220
SWIDTH 672 0
DWIDTH 7 0
BBX 6 10 0 0
BITMAP
28
00
CC
CC
CC
CC
CC
CC
CC
78
ENDCHAR
STARTCHAR char221
ENCODING 221
SWIDTH 864 0
DWIDTH 9 0
BBX 8 11 0 0
BITMAP
04
08
00
C3
C3
66
66
3C
18
18
18
ENDCHAR
STARTCHAR char222
ENCODING 222
SWIDTH 672 0
DWIDTH 7 0
BBX 6 8 0 0
BITMAP
C0
F8
CC
CC
CC
F8
C0
C0
ENDCHAR
STARTCHAR char223
ENCODING 223
SWIDTH 576 0
DWIDTH 6 0
BBX 5 8 0 0
BITMAP
70
C8
C8
D0
C8
C8
C8
D0
ENDCHAR
STARTCHAR char224
ENCODING 224
SWIDTH 576 0
DWIDTH 6 0
BBX 6 9 0 0
BITMAP
40
20
00
70
98
78
D8
D8
6C
ENDCHAR
STARTCHAR char225
ENCODING 225
SWIDTH 576 0
DWIDTH 6 0
BBX 6 9 0 0
BITMAP
08
10
00
70
98
78
D8
D8
6C
ENDCHAR
STARTCHAR char226
ENCODING 226
SWIDTH 576 0
DWIDTH 6 0
BBX 6 9 0 0
BITMAP
30
68
00
70
98
78
D8
D8
6C
ENDCHAR
STARTCHAR char227
ENCODING 227
SWIDTH 576 0
DWIDTH 6 0
BBX 6 9 0 0
BITMAP
28
50
00
70
98
78
D8
D8
6C
ENDCHAR
STARTCHAR char228
ENCODING 228
SWIDTH 576 0
DWIDTH 6 0
BBX 6 9 0 0
BITMAP
50
50
00
70
98
78
D8
D8
6C
ENDCHAR
STARTCHAR char229
ENCODING 229
SWIDTH 576 0
DWIDTH 6 0
BBX 6 9 0 0
BITMAP
20
50
20
70
98
78
D8
D8
6C
ENDCHAR
STARTCHAR char230
ENCODING 230
SWIDTH 864 0
DWIDTH 9 0
BBX 8 6 0 0
BITMAP
7E
9B
7F
D8
DB
6E
ENDCHAR
STARTCHAR char231
ENCODING 231
SWIDTH 480 0
DWIDTH 5 0
BBX 4 8 0 -2
BITMAP
70
D0
C0
C0
D0
70
20
60
ENDCHAR
STARTCHAR char232
ENCODING 232
SWIDTH 576 0
DWIDTH 6 0
BBX 5 9 0 0
BITMAP
40
20
00
70
D8
F8
C0
D8
70
ENDCHAR
STARTCHAR char233
ENCODING 233
SWIDTH 576 0
DWIDTH 6 0
BBX 5 9 0 0
BITMAP
10
20
00
70
D8
F8
C0
D8
70
ENDCHAR
STARTCHAR char234
ENCODING 234
SWIDTH 576 0
DWIDTH 6 0
BBX 5 9 0 0
BITMAP
20
50
00
70
D8
F8
C0
D8
70
ENDCHAR
STARTCHAR char235
ENCODING 235
SWIDTH 576 0
DWIDTH 6 0
BBX 5 9 0 0
BITMAP
50
50
00
70
D8
F8
C0
D8
70
ENDCHAR
STARTCHAR char236
ENCODING 236
SWIDTH 288 0
DWIDTH 3 0
BBX 2 9 0 0
BITMAP
80
40
00
C0
C0
C0
C0
C0
C0
ENDCHAR
STARTCHAR char237
ENCODING 237
SWIDTH 288 0
DWIDTH 3 0
BBX 3 9 0 0
BITMAP
20
40
00
C0
C0
C0
C0
C0
C0
ENDCHAR
STARTCHAR char238
ENCODING 238
SWIDTH 288 0
DWIDTH 3 0
BBX 3 9 -1 0
BITMAP
40
A0
00
60
60
60
60
60
60
ENDCHAR
STARTCHAR char239
ENCODING 239
SWIDTH 288 0
DWIDTH 3 0
BBX 3 9 0 0
BITMAP
A0
A0
00
C0
C0
C0
C0
C0
C0
ENDCHAR
STARTCHAR char240
ENCODING 240
SWIDTH 576 0
DWIDTH 6 0
BBX 5 9 0 0
BITMAP
50
60
A0
70
D8
D8
D8
D8
70
ENDCHAR
STARTCHAR char241
ENCODING 241
SWIDTH 576 0
DWIDTH 6 0
BBX 5 9 0 0
BITMAP
28
50
00
B0
D8
D8
D8
D8
D8
ENDCHAR
STARTCHAR char242
ENCODING 242
SWIDTH 576 0
DWIDTH 6 0
BBX 5 9 0 0
BITMAP
40
20
00
70
D8
D8
D8
D8
70
ENDCHAR
STARTCHAR char243
ENCODING 243
SWIDTH 576 0
DWIDTH 6 0
BBX 5 9 0 0
BITMAP
10
20
00
70
D8
D8
D8
D8
70
ENDCHAR
STARTCHAR char244
ENCODING 244
SWIDTH 576 0
DWIDTH 6 0
BBX 5 9 0 0
BITMAP
20
50
00
70
D8
D8
D8
D8
70
ENDCHAR
STARTCHAR char245
ENCODING 245
SWIDTH 576 0
DWIDTH 6 0
BBX 5 9 0 0
BITMAP
50
A0
00
70
D8
D8
D8
D8
70
ENDCHAR
STARTCHAR char246
ENCODING 246
SWIDTH 576 0
DWIDTH 6 0
BBX 5 9 0 0
BITMAP
50
50
00
70
D8
D8
D8
D8
70
ENDCHAR
STARTCHAR char247
ENCODING 247
SWIDTH 576 0
DWIDTH 6 0
BBX 6 5 0 1
BITMAP
30
00
FC
00
30
ENDCHAR
STARTCHAR char248
ENCODING 248
SWIDTH 576 0
DWIDTH 6 0
BBX 6 6 0 0
BITMAP
74
D8
F8
D8
D8
70
ENDCHAR
STARTCHAR char249
ENCODING 249
SWIDTH 576 0
DWIDTH 6 0
BBX 5 9 0 0
BITMAP
40
20
00
D8
D8
D8
D8
D8
68
ENDCHAR
STARTCHAR char250
ENCODING 250
SWIDTH 576 0
DWIDTH 6 0
BBX 5 9 0 0
BITMAP
10
20
00
D8
D8
D8
D8
D8
68
ENDCHAR
STARTCHAR char251
ENCODING 251
SWIDTH 576 0
DWIDTH 6 0
BBX 5 9 0 0
BITMAP
20
50
00
D8
D8
D8
D8
D8
68
ENDCHAR
STARTCHAR char252
ENCODING 252
SWIDTH 576 0
DWIDTH 6 0
BBX 5 9 0 0
BITMAP
50
50
00
D8
D8
D8
D8
D8
68
ENDCHAR
STARTCHAR char253
ENCODING 253
SWIDTH 576 0
DWIDTH 6 0
BBX 5 11 0 -2
BITMAP
10
20
00
D8
D8
D8
D8
78
30
30
60
ENDCHAR
STARTCHAR char254
ENCODING 254
SWIDTH 576 0
DWIDTH 6 0
BBX 5 10 0 -2
BITMAP
C0
C0
F0
D8
C8
C8
D8
F0
C0
C0
ENDCHAR
STARTCHAR char255
ENCODING 255
SWIDTH 576 0
DWIDTH 6 0
BBX 5 11 0 -2
BITMAP
50
50
00
D8
D8
D8
D8
78
30
30
60
ENDCHAR
STARTCHAR char256
ENCODING 256
SWIDTH 768 0
DWIDTH 8 0
BBX 7 10 0 0
BITMAP
38
00
38
38
6C
6C
6C
FE
C6
C6
ENDCHAR
STARTCHAR char257
ENCODING 257
SWIDTH 576 0
DWIDTH 6 0
BBX 6 8 0 0
BITMAP
70
00
70
98
78
D8
D8
6C
ENDCHAR
STARTCHAR char258
ENCODING 258
SWIDTH 768 0
DWIDTH 8 0
BBX 7 11 0 0
BITMAP
24
18
00
38
38
6C
6C
6C
FE
C6
C6
ENDCHAR
STARTCHAR char259
ENCODING 259
SWIDTH 576 0
DWIDTH 6 0
BBX 6 9 0 0
BITMAP
48
30
00
70
98
78
D8
D8
6C
ENDCHAR
STARTCHAR char260
ENCODING 260
SWIDTH 768 0
DWIDTH 8 0
BBX 7 10 0 -2
BITMAP
38
38
6C
6C
6C
FE
C6
C6
10
18
ENDCHAR
STARTCHAR char261
ENCODING 261
SWIDTH 576 0
DWIDTH 6 0
BBX 6 8 0 -2
BITMAP
70
98
78
D8
D8
6C
20
30
ENDCHAR
STARTCHAR char262
ENCODING 262
SWIDTH 768 0
DWIDTH 8 0
BBX 7 11 0 0
BITMAP
08
10
00
3C
66
C2
C0
C0
C2
66
3C
ENDCHAR
STARTCHAR char263
ENCODING 263
SWIDTH 480 0
DWIDTH 5 0
BBX 4 9 0 0
BITMAP
20
40
00
70
D0
C0
C0
D0
70
ENDCHAR
STARTCHAR char264
ENCODING 264
SWIDTH 768 0
DWIDTH 8 0
BBX 7 11 0 0
BITMAP
10
28
00
3C
66
C2
C0
C0
C2
66
3C
ENDCHAR
STARTCHAR char265
ENCODING 265
SWIDTH 480 0
DWIDTH 5 0
BBX 4 9 0 0
BITMAP
20
50
00
70
D0
C0
C0
D0
70
ENDCHAR
STARTCHAR char266
ENCODING 266
SWIDTH 768 0
DWIDTH 8 0
BBX 7 10 0 0
BITMAP
10
00
3C
66
C2
C0
C0
C2
66
3C
ENDCHAR
STARTCHAR char267
ENCODING 267
SWIDTH 480 0
DWIDTH 5 0
BBX 4 8 0 0
BITMAP
20
00
70
D0
C0
C0
D0
70
ENDCHAR
STARTCHAR char268
ENCODING 268
SWIDTH 768 0
DWIDTH 8 0
BBX 7 11 0 0
BITMAP
28
10
00
3C
66
C2
C0
C0
C2
66
3C
ENDCHAR
STARTCHAR char269
ENCODING 269
SWIDTH 480 0
DWIDTH 5 0
BBX 4 9 0 0
BITMAP
50
20
00
70
D0
C0
C0
D0
70
ENDCHAR
STARTCHAR char270
ENCODING 270
SWIDTH 672 0
DWIDTH 7 0
BBX 6 11 0 0
BITMAP
50
20
00
F0
D8
CC
CC
CC
CC
D8
F0
ENDCHAR
STARTCHAR char271
ENCODING 271
SWIDTH 864 0
DWIDTH 9 0
BBX 8 8 0 0
BITMAP
1B
19
7A
D8
98
98
D8
78
ENDCHAR
STARTCHAR char272
ENCODING 272
SWIDTH 672 0
DWIDTH 7 0
BBX 6 8 0 0
BITMAP
F0
D8
CC
EC
CC
CC
D8
F0
ENDCHAR
STARTCHAR char273
ENCODING 273
SWIDTH 576 0
DWIDTH 6 0
BBX 5 8 0 0
BITMAP
18
38
78
D8
98
98
D8
78
ENDCHAR
STARTCHAR char274
ENCODING 274
SWIDTH 576 0
DWIDTH 6 0
BBX 5 10 0 0
BITMAP
70
00
F8
C0
C0
F8
C0
C0
C0
F8
ENDCHAR
STARTCHAR char275
ENCODING 275
SWIDTH 576 0
DWIDTH 6 0
BBX 5 8 0 0
BITMAP
70
00
70
D8
F8
C0
D8
70
ENDCHAR
STARTCHAR char276
ENCODING 276
SWIDTH 576 0
DWIDTH 6 0
BBX 5 11 0 0
BITMAP
90
60
00
F8
C0
C0
F8
C0
C0
C0
F8
ENDCHAR
STARTCHAR char277
ENCODING 277
SWIDTH 576 0
DWIDTH 6 0
BBX 5 9 0 0
BITMAP
48
30
00
70
D8
F8
C0
D8
70
ENDCHAR
STARTCHAR char278
ENCODING 278
SWIDTH 576 0
DWIDTH 6 0
BBX 5 10 0 0
BITMAP
20
00
F8
C0
C0
F8
C0
C0
C0
F8
ENDCHAR
STARTCHAR char279
ENCODING 279
SWIDTH 576 0
DWIDTH 6 0
BBX 5 8 0 0
BITMAP
20
00
70
D8
F8
C0
D8
70
ENDCHAR
STARTCHAR char280
ENCODING 280
SWIDTH 576 0
DWIDTH 6 0
BBX 5 10 0 -2
BITMAP
F8
C0
C0
F8
C0
C0
C0
F8
40
60
ENDCHAR
STARTCHAR char281
ENCODING 281
SWIDTH 576 0
DWIDTH 6 0
BBX 5 8 0 -2
BITMAP
70
D8
F8
C0
D8
70
20
30
ENDCHAR
STARTCHAR char282
ENCODING 282
SWIDTH 576 0
DWIDTH 6 0
BBX 5 11 0 0
BITMAP
50
20
00
F8
C0
C0
F8
C0
C0
C0
F8
ENDCHAR
STARTCHAR char283
ENCODING 283
SWIDTH 576 0
DWIDTH 6 0
BBX 5 9 0 0
BITMAP
50
20
00
70
D8
F8
C0
D8
70
ENDCHAR
STARTCHAR char284
ENCODING 284
SWIDTH 768 0
DWIDTH 8 0
BBX 7 11 0 0
BITMAP
10
28
00
3C
66
C2
C0
CE
C6
66
3A
ENDCHAR
STARTCHAR char285
ENCODING 285
SWIDTH 576 0
DWIDTH 6 0
BBX 5 11 0 -2
BITMAP
20
50
00
68
D8
98
98
D8
78
18
70
ENDCHAR
STARTCHAR char286
ENCODING 286
SWIDTH 768 0
DWIDTH 8 0
BBX 7 11 0 0
BITMAP
24
18
00
3C
66
C2
C0
CE
C6
66
3A
ENDCHAR
STARTCHAR char287
ENCODING 287
SWIDTH 576 0
DWIDTH 6 0
BBX 5 11 0 -2
BITMAP
48
30
00
68
D8
98
98
D8
78
18
70
ENDCHAR
STARTCHAR char288
ENCODING 288
SWIDTH 768 0
DWIDTH 8 0
BBX 7 10 0 0
BITMAP
10
00
3C
66
C2
C0
CE
C6
66
3A
ENDCHAR
STARTCHAR char289
ENCODING 289
SWIDTH 576 0
DWIDTH 6 0
BBX 5 10 0 -2
BITMAP
20
00
68
D8
98
98
D8
78
18
70
ENDCHAR
STARTCHAR char290
ENCODING 290
SWIDTH 768 0
DWIDTH 8 0
BBX 7 13 0 -5
BITMAP
3C
66
C2
C0
CE
C6
66
3A
00
10
10
10
20
ENDCHAR
STARTCHAR char291
ENCODING 291
SWIDTH 576 0
DWIDTH 6 0
BBX 5 12 0 -2
BITMAP
10
20
30
00
68
D8
98
98
D8
78
18
70
ENDCHAR
STARTCHAR char292
ENCODING 292
SWIDTH 672 0
DWIDTH 7 0
BBX 6 11 0 0
BITMAP
10
28
00
CC
CC
CC
FC
CC
CC
CC
CC
ENDCHAR
STARTCHAR char293
ENCODING 293
SWIDTH 576 0
DWIDTH 6 0
BBX 5 11 0 0
BITMAP
40
A0
00
C0
C0
F0
D8
D8
D8
D8
D8
ENDCHAR
STARTCHAR char294
ENCODING 294
SWIDTH 672 0
DWIDTH 7 0
BBX 6 8 0 0
BITMAP
CC
FC
CC
FC
CC
CC
CC
CC
ENDCHAR
STARTCHAR char295
ENCODING 295
SWIDTH 576 0
DWIDTH 6 0
BBX 5 8 0 0
BITMAP
C0
E0
F0
D8
D8
D8
D8
D8
ENDCHAR
STARTCHAR char296
ENCODING 296
SWIDTH 288 0
DWIDTH 3 0
BBX 4 11 -1 0
BITMAP
50
A0
00
60
60
60
60
60
60
60
60
ENDCHAR
STARTCHAR char297
ENCODING 297
SWIDTH 288 0
DWIDTH 3 0
BBX 4 9 -1 0
BITMAP
50
A0
00
60
60
60
60
60
60
ENDCHAR
STARTCHAR char298
ENCODING 298
SWIDTH 288 0
DWIDTH 3 0
BBX 3 10 0 0
BITMAP
E0
00
C0
C0
C0
C0
C0
C0
C0
C0
ENDCHAR
STARTCHAR char299
ENCODING 299
SWIDTH 288 0
DWIDTH 3 0
BBX 3 8 0 0
BITMAP
E0
00
C0
C0
C0
C0
C0
C0
ENDCHAR
STARTCHAR char300
ENCODING 300
SWIDTH 288 0
DWIDTH 3 0
BBX 4 11 -1 0
BITMAP
90
60
00
60
60
60
60
60
60
60
60
ENDCHAR
STARTCHAR char301
ENCODING 301
SWIDTH 288 0
DWIDTH 3 0
BBX 4 9 -1 0
BITMAP
90
60
00
60
60
60
60
60
60
ENDCHAR
STARTCHAR char302
ENCODING 302
SWIDTH 288 0
DWIDTH 3 0
BBX 2 10 0 -2
BITMAP
C0
C0
C0
C0
C0
C0
C0
C0
80
C0
ENDCHAR
STARTCHAR char303
ENCODING 303
SWIDTH 288 0
DWIDTH 3 0
BBX 2 10 0 -2
BITMAP
C0
00
C0
C0
C0
C0
C0
C0
80
C0
ENDCHAR
STARTCHAR char304
ENCODING 304
SWIDTH 288 0
DWIDTH 3 0
BBX 2 10 0 0
BITMAP
40
00
C0
C0
C0
C0
C0
C0
C0
C0
ENDCHAR
STARTCHAR char305
ENCODING 305
SWIDTH 288 0
DWIDTH 3 0
BBX 2 6 0 0
BITMAP
C0
C0
C0
C0
C0
C0
ENDCHAR
STARTCHAR char306
ENCODING 306
SWIDTH 864 0
DWIDTH 9 0
BBX 8 8 0 0
BITMAP
C3
C3
C3
C3
C3
C3
DB
CE
ENDCHAR
STARTCHAR char307
ENCODING 307
SWIDTH 576 0
DWIDTH 6 0
BBX 5 10 0 -2
BITMAP
D8
00
D8
D8
D8
D8
D8
D8
18
10
ENDCHAR
STARTCHAR char308
ENCODING 308
SWIDTH 576 0
DWIDTH 6 0
BBX 5 11 0 0
BITMAP
10
28
00
18
18
18
18
18
18
D8
70
ENDCHAR
STARTCHAR char309
ENCODING 309
SWIDTH 288 0
DWIDTH 3 0
BBX 3 11 0 -2
BITMAP
40
A0
00
C0
C0
C0
C0
C0
C0
C0
80
ENDCHAR
STARTCHAR char310
ENCODING 310
SWIDTH 672 0
DWIDTH 7 0
BBX 7 13 0 -5
BITMAP
CC
D8
F0
E0
F0
D8
CC
C6
00
10
10
10
20
ENDCHAR
STARTCHAR char311
ENCODING 311
SWIDTH 576 0
DWIDTH 6 0
BBX 6 13 0 -5
BITMAP
C0
C0
D8
F0
E0
F0
D8
CC
00
20
20
20
40
ENDCHAR
STARTCHAR char312
ENCODING 312
SWIDTH 576 0
DWIDTH 6 0
BBX 6 6 0 0
BITMAP
D8
F0
E0
F0
D8
CC
ENDCHAR
STARTCHAR char313
ENCODING 313
SWIDTH 576 0
DWIDTH 6 0
BBX 5 11 0 0
BITMAP
20
40
00
C0
C0
C0
C0
C0
C0
C0
F8
ENDCHAR
STARTCHAR char314
ENCODING 314
SWIDTH 288 0
DWIDTH 3 0
BBX 2 11 0 0
BITMAP
40
80
00
C0
C0
C0
C0
C0
C0
C0
C0
ENDCHAR
STARTCHAR char315
ENCODING 315
SWIDTH 576 0
DWIDTH 6 0
BBX 5 13 0 -5
BITMAP
C0
C0
C0
C0
C0
C0
C0
F8
00
20
20
20
40
ENDCHAR
STARTCHAR char316
ENCODING 316
SWIDTH 288 0
DWIDTH 3 0
BBX 2 13 0 -5
BITMAP
C0
C0
C0
C0
C0
C0
C0
C0
00
40
40
40
80
ENDCHAR
STARTCHAR char317
ENCODING 317
SWIDTH 864 0
DWIDTH 9 0
BBX 8 8 0 0
BITMAP
C3
C1
C2
C0
C0
C0
C0
F8
ENDCHAR
STARTCHAR char318
ENCODING 318
SWIDTH 576 0
DWIDTH 6 0
BBX 5 8 0 0
BITMAP
D8
C8
D0
C0
C0
C0
C0
C0
ENDCHAR
STARTCHAR char319
ENCODING 319
SWIDTH 864 0
DWIDTH 9 0
BBX 8 8 0 0
BITMAP
C0
C0
C0
C0
C3
C0
C0
F8
ENDCHAR
STARTCHAR char320
ENCODING 320
SWIDTH 576 0
DWIDTH 6 0
BBX 5 8 0 0
BITMAP
C0
C0
C0
C0
D8
C0
C0
C0
ENDCHAR
STARTCHAR char321
ENCODING 321
SWIDTH 576 0
DWIDTH 6 0
BBX 6 8 -1 0
BITMAP
60
60
60
70
E0
60
60
7C
ENDCHAR
STARTCHAR char322
ENCODING 322
SWIDTH 288 0
DWIDTH 3 0
BBX 4 8 -1 0
BITMAP
60
60
60
70
E0
60
60
60
ENDCHAR
STARTCHAR char323
ENCODING 323
SWIDTH 768 0
DWIDTH 8 0
BBX 7 11 0 0
BITMAP
08
10
00
C6
E6
E6
D6
D6
CE
CE
C6
ENDCHAR
STARTCHAR char324
ENCODING 324
SWIDTH 576 0
DWIDTH 6 0
BBX 5 9 0 0
BITMAP
10
20
00
B0
D8
D8
D8
D8
D8
ENDCHAR
STARTCHAR char325
ENCODING 325
SWIDTH 768 0
DWIDTH 8 0
BBX 7 13 0 -5
BITMAP
C6
E6
E6
D6
D6
CE
CE
C6
00
10
10
10
20
ENDCHAR
STARTCHAR char326
ENCODING 326
SWIDTH 576 0
DWIDTH 6 0
BBX 5 11 0 -5
BITMAP
B0
D8
D8
D8
D8
D8
00
20
20
20
40
ENDCHAR
STARTCHAR char327
ENCODING 327
SWIDTH 768 0
DWIDTH 8 0
BBX 7 11 0 0
BITMAP
28
10
00
C6
E6
E6
D6
D6
CE
CE
C6
ENDCHAR
STARTCHAR char328
ENCODING 328
SWIDTH 576 0
DWIDTH 6 0
BBX 5 9 0 0
BITMAP
50
20
00
B0
D8
D8
D8
D8
D8
ENDCHAR
STARTCHAR char329
ENCODING 329
SWIDTH 864 0
DWIDTH 9 0
BBX 8 8 0 0
BITMAP
C0
40
96
1B
1B
1B
1B
1B
ENDCHAR
STARTCHAR char330
ENCODING 330
SWIDTH 768 0
DWIDTH 8 0
BBX 7 10 0 -2
BITMAP
C6
E6
E6
D6
D6
CE
CE
C6
06
04
ENDCHAR
STARTCHAR char331
ENCODING 331
SWIDTH 576 0
DWIDTH 6 0
BBX 5 8 0 -2
BITMAP
B0
D8
D8
D8
D8
D8
18
10
ENDCHAR
STARTCHAR char332
ENCODING 332
SWIDTH 768 0
DWIDTH 8 0
BBX 7 10 0 0
BITMAP
38
00
38
6C
C6
C6
C6
C6
6C
38
ENDCHAR
STARTCHAR char333
ENCODING 333
SWIDTH 576 0
DWIDTH 6 0
BBX 5 8 0 0
BITMAP
70
00
70
D8
D8
D8
D8
70
ENDCHAR
STARTCHAR char334
ENCODING 334
SWIDTH 768 0
DWIDTH 8 0
BBX 7 11 0 0
BITMAP
24
18
00
38
6C
C6
C6
C6
C6
6C
38
ENDCHAR
STARTCHAR char335
ENCODING 335
SWIDTH 576 0
DWIDTH 6 0
BBX 5 9 0 0
BITMAP
48
30
00
70
D8
D8
D8
D8
70
ENDCHAR
STARTCHAR char336
ENCODING 336
SWIDTH 768 0
DWIDTH 8 0
BBX 7 11 0 0
BITMAP
14
28
00
38
6C
C6
C6
C6
C6
6C
38
ENDCHAR
STARTCHAR char337
ENCODING 337
SWIDTH 576 0
DWIDTH 6 0
BBX 5 9 0 0
BITMAP
28
50
00
70
D8
D8
D8
D8
70
ENDCHAR
STARTCHAR char338
ENCODING 338
SWIDTH 960 0
DWIDTH 10 0
BBX 9 8 0 0
BITMAP
3F80
6C00
CC00
CF80
CC00
CC00
6C00
3F80
ENDCHAR
STARTCHAR char339
ENCODING 339
SWIDTH 960 0
DWIDTH 10 0
BBX 9 6 0 0
BITMAP
7700
CD80
CF80
CC00
CD80
7700
ENDCHAR
STARTCHAR char340
ENCODING 340
SWIDTH 672 0
DWIDTH 7 0
BBX 6 11 0 0
BITMAP
10
20
00
F8
CC
CC
CC
F8
CC
CC
CC
ENDCHAR
STARTCHAR char341
ENCODING 341
SWIDTH 384 0
DWIDTH 4 0
BBX 4 9 0 0
BITMAP
20
40
00
B0
E0
C0
C0
C0
C0
ENDCHAR
STARTCHAR char342
ENCODING 342
SWIDTH 672 0
DWIDTH 7 0
BBX 6 13 0 -5
BITMAP
F8
CC
CC
CC
F8
CC
CC
CC
00
10
10
10
20
ENDCHAR
STARTCHAR char343
ENCODING 343
SWIDTH 384 0
DWIDTH 4 0
BBX 4 11 0 -5
BITMAP
B0
E0
C0
C0
C0
C0
00
40
40
40
80
ENDCHAR
STARTCHAR char344
ENCODING 344
SWIDTH 672 0
DWIDTH 7 0
BBX 6 11 0 0
BITMAP
50
20
00
F8
CC
CC
CC
F8
CC
CC
CC
ENDCHAR
STARTCHAR char345
ENCODING 345
SWIDTH 384 0
DWIDTH 4 0
BBX 4 9 0 0
BITMAP
A0
40
00
B0
E0
C0
C0
C0
C0
ENDCHAR
STARTCHAR char346
ENCODING 346
SWIDTH 672 0
DWIDTH 7 0
BBX 6 11 0 0
BITMAP
10
20
00
78
CC
E0
78
1C
8C
CC
78
ENDCHAR
STARTCHAR char347
ENCODING 347
SWIDTH 576 0
DWIDTH 6 0
BBX 5 9 0 0
BITMAP
10
20
00
70
D8
70
18
D8
70
ENDCHAR
STARTCHAR char348
ENCODING 348
SWIDTH 672 0
DWIDTH 7 0
BBX 6 11 0 0
BITMAP
20
50
00
78
CC
E0
78
1C
8C
CC
78
ENDCHAR
STARTCHAR char349
ENCODING 349
SWIDTH 576 0
DWIDTH 6 0
BBX 5 9 0 0
BITMAP
20
50
00
70
D8
70
18
D8
70
ENDCHAR
STARTCHAR char350
ENCODING 350
SWIDTH 672 0
DWIDTH 7 0
BBX 6 10 0 -2
BITMAP
78
CC
E0
78
1C
8C
CC
78
10
30
ENDCHAR
STARTCHAR char351
ENCODING 351
SWIDTH 576 0
DWIDTH 6 0
BBX 5 8 0 -2
BITMAP
70
D8
70
18
D8
70
20
60
ENDCHAR
STARTCHAR char352
ENCODING 352
SWIDTH 672 0
DWIDTH 7 0
BBX 6 9 0 0
BITMAP
28
10
00
78
CC
70
3C
CC
78
ENDCHAR
STARTCHAR char353
ENCODING 353
SWIDTH 576 0
DWIDTH 6 0
BBX 5 9 0 0
BITMAP
50
20
00
70
D8
70
18
D8
70
ENDCHAR
STARTCHAR char354
ENCODING 354
SWIDTH 672 0
DWIDTH 7 0
BBX 6 10 0 -2
BITMAP
FC
30
30
30
30
30
30
30
10
30
ENDCHAR
STARTCHAR char355
ENCODING 355
SWIDTH 384 0
DWIDTH 4 0
BBX 3 10 0 -2
BITMAP
C0
C0
E0
C0
C0
C0
C0
60
40
C0
ENDCHAR
STARTCHAR char356
ENCODING 356
SWIDTH 672 0
DWIDTH 7 0
BBX 6 11 0 0
BITMAP
28
10
00
FC
30
30
30
30
30
30
30
ENDCHAR
STARTCHAR char357
ENCODING 357
SWIDTH 672 0
DWIDTH 7 0
BBX 6 8 0 0
BITMAP
CC
C4
E8
C0
C0
C0
C0
60
ENDCHAR
STARTCHAR char358
ENCODING 358
SWIDTH 672 0
DWIDTH 7 0
BBX 6 8 0 0
BITMAP
FC
30
30
38
30
30
30
30
ENDCHAR
STARTCHAR char359
ENCODING 359
SWIDTH 384 0
DWIDTH 4 0
BBX 3 8 0 0
BITMAP
C0
C0
E0
C0
E0
C0
C0
60
ENDCHAR
STARTCHAR char360
ENCODING 360
SWIDTH 672 0
DWIDTH 7 0
BBX 6 11 0 0
BITMAP
28
50
00
CC
CC
CC
CC
CC
CC
CC
78
ENDCHAR
STARTCHAR char361
ENCODING 361
SWIDTH 576 0
DWIDTH 6 0
BBX 5 9 0 0
BITMAP
28
50
00
D8
D8
D8
D8
D8
68
ENDCHAR
STARTCHAR char362
ENCODING 362
SWIDTH 672 0
DWIDTH 7 0
BBX 6 10 0 0
BITMAP
38
00
CC
CC
CC
CC
CC
CC
CC
78
ENDCHAR
STARTCHAR char363
ENCODING 363
SWIDTH 576 0
DWIDTH 6 0
BBX 5 8 0 0
BITMAP
70
00
D8
D8
D8
D8
D8
68
ENDCHAR
STARTCHAR char364
ENCODING 364
SWIDTH 672 0
DWIDTH 7 0
BBX 6 11 0 0
BITMAP
48
30
00
CC
CC
CC
CC
CC
CC
CC
78
ENDCHAR
STARTCHAR char365
ENCODING 365
SWIDTH 576 0
DWIDTH 6 0
BBX 5 9 0 0
BITMAP
48
30
00
D8
D8
D8
D8
D8
68
ENDCHAR
STARTCHAR char366
ENCODING 366
SWIDTH 672 0
DWIDTH 7 0
BBX 6 12 0 0
BITMAP
10
28
10
00
CC
CC
CC
CC
CC
CC
CC
78
ENDCHAR
STARTCHAR char367
ENCODING 367
SWIDTH 576 0
DWIDTH 6 0
BBX 5 10 0 0
BITMAP
20
50
20
00
D8
D8
D8
D8
D8
68
ENDCHAR
STARTCHAR char368
ENCODING 368
SWIDTH 672 0
DWIDTH 7 0
BBX 6 11 0 0
BITMAP
28
50
00
CC
CC
CC
CC
CC
CC
CC
78
ENDCHAR
STARTCHAR char369
ENCODING 369
SWIDTH 576 0
DWIDTH 6 0
BBX 5 9 0 0
BITMAP
28
50
00
D8
D8
D8
D8
D8
68
ENDCHAR
STARTCHAR char370
ENCODING 370
SWIDTH 672 0
DWIDTH 7 0
BBX 6 10 0 -2
BITMAP
CC
CC
CC
CC
CC
CC
CC
78
20
30
ENDCHAR
STARTCHAR char371
ENCODING 371
SWIDTH 576 0
DWIDTH 6 0
BBX 5 8 0 -2
BITMAP
D8
D8
D8
D8
D8
68
20
30
ENDCHAR
STARTCHAR char372
ENCODING 372
SWIDTH 1056 0
DWIDTH 11 0
BBX 10 11 0 0
BITMAP
0400
0A00
0000
CCC0
CCC0
CCC0
6D80
6D80
7F80
3300
2100
ENDCHAR
STARTCHAR char373
ENCODING 373
SWIDTH 768 0
DWIDTH 8 0
BBX 7 9 0 0
BITMAP
10
28
00
D6
D6
D6
6C
6C
6C
ENDCHAR
STARTCHAR char374
ENCODING 374
SWIDTH 864 0
DWIDTH 9 0
BBX 8 11 0 0
BITMAP
08
14
00
C3
C3
66
66
3C
18
18
18
ENDCHAR
STARTCHAR char375
ENCODING 375
SWIDTH 576 0
DWIDTH 6 0
BBX 5 11 0 -2
BITMAP
20
50
00
D8
D8
D8
D8
78
30
30
60
ENDCHAR
STARTCHAR char376
ENCODING 376
SWIDTH 768 0
DWIDTH 8 0
BBX 8 8 0 0
BITMAP
14
00
C3
66
3C
18
18
18
ENDCHAR
STARTCHAR char377
ENCODING 377
SWIDTH 672 0
DWIDTH 7 0
BBX 6 11 0 0
BITMAP
08
10
00
FC
0C
18
30
70
60
C0
FC
ENDCHAR
STARTCHAR char378
ENCODING 378
SWIDTH 576 0
DWIDTH 6 0
BBX 5 9 0 0
BITMAP
10
20
00
F8
18
30
60
C0
F8
ENDCHAR
STARTCHAR char379
ENCODING 379
SWIDTH 672 0
DWIDTH 7 0
BBX 6 10 0 0
BITMAP
10
00
FC
0C
18
30
70
60
C0
FC
ENDCHAR
STARTCHAR char380
ENCODING 380
SWIDTH 576 0
DWIDTH 6 0
BBX 5 8 0 0
BITMAP
20
00
F8
18
30
60
C0
F8
ENDCHAR
STARTCHAR char381
ENCODING 381
SWIDTH 672 0
DWIDTH 7 0
BBX 6 9 0 0
BITMAP
28
10
00
FC
18
30
60
C0
FC
ENDCHAR
STARTCHAR char382
ENCODING 382
SWIDTH 480 0
DWIDTH 5 0
BBX 5 9 0 0
BITMAP
50
20
00
F8
18
30
60
C0
F8
ENDCHAR
STARTCHAR char390
ENCODING 390
SWIDTH 768 0
DWIDTH 8 0
BBX 7 8 0 0
BITMAP
78
CC
86
06
06
86
CC
78
ENDCHAR
STARTCHAR char393
ENCODING 393
SWIDTH 672 0
DWIDTH 7 0
BBX 6 8 0 0
BITMAP
F0
D8
CC
EC
CC
CC
D8
F0
ENDCHAR
STARTCHAR char398
ENCODING 398
SWIDTH 576 0
DWIDTH 6 0
BBX 5 8 0 0
BITMAP
F8
18
18
18
F8
18
18
F8
ENDCHAR
STARTCHAR char402
ENCODING 402
SWIDTH 576 0
DWIDTH 6 0
BBX 5 9 0 -2
BITMAP
38
60
F8
60
60
60
60
60
C0
ENDCHAR
STARTCHAR char407
ENCODING 407
SWIDTH 288 0
DWIDTH 3 0
BBX 3 8 0 0
BITMAP
C0
C0
C0
E0
C0
C0
C0
C0
ENDCHAR
STARTCHAR char410
ENCODING 410
SWIDTH 288 0
DWIDTH 3 0
BBX 3 8 0 0
BITMAP
C0
C0
C0
E0
C0
C0
C0
C0
ENDCHAR
STARTCHAR char413
ENCODING 413
SWIDTH 768 0
DWIDTH 8 0
BBX 7 10 0 -2
BITMAP
C6
E6
E6
D6
D6
CE
CE
C6
C0
80
ENDCHAR
STARTCHAR char415
ENCODING 415
SWIDTH 768 0
DWIDTH 8 0
BBX 7 8 0 0
BITMAP
38
6C
C6
FE
C6
C6
6C
38
ENDCHAR
STARTCHAR char416
ENCODING 416
SWIDTH 768 0
DWIDTH 8 0
BBX 9 8 0 0
BITMAP
3980
6C80
C700
C600
C600
C600
6C00
3800
ENDCHAR
STARTCHAR char417
ENCODING 417
SWIDTH 576 0
DWIDTH 6 0
BBX 7 6 0 0
BITMAP
76
DA
DC
D8
D8
70
ENDCHAR
STARTCHAR char423
ENCODING 423
SWIDTH 672 0
DWIDTH 7 0
BBX 6 8 0 0
BITMAP
78
CC
1C
78
E0
C4
CC
78
ENDCHAR
STARTCHAR char424
ENCODING 424
SWIDTH 576 0
DWIDTH 6 0
BBX 5 6 0 0
BITMAP
70
D8
70
C0
D8
70
ENDCHAR
STARTCHAR char430
ENCODING 430
SWIDTH 672 0
DWIDTH 7 0
BBX 6 10 0 -2
BITMAP
FC
30
30
30
30
30
30
30
30
10
ENDCHAR
STARTCHAR char431
ENCODING 431
SWIDTH 672 0
DWIDTH 7 0
BBX 8 8 0 0
BITMAP
CF
CD
CE
CC
CC
CC
CC
78
ENDCHAR
STARTCHAR char432
ENCODING 432
SWIDTH 576 0
DWIDTH 6 0
BBX 7 6 0 0
BITMAP
DE
DA
DC
D8
D8
68
ENDCHAR
STARTCHAR char437
ENCODING 437
SWIDTH 672 0
DWIDTH 7 0
BBX 6 8 0 0
BITMAP
FC
0C
18
38
70
60
C0
FC
ENDCHAR
STARTCHAR char438
ENCODING 438
SWIDTH 576 0
DWIDTH 6 0
BBX 5 6 0 0
BITMAP
F8
18
70
60
C0
F8
ENDCHAR
STARTCHAR char443
ENCODING 443
SWIDTH 576 0
DWIDTH 6 0
BBX 5 8 0 0
BITMAP
70
D8
18
F8
30
60
C0
F8
ENDCHAR
STARTCHAR char444
ENCODING 444
SWIDTH 576 0
DWIDTH 6 0
BBX 5 8 0 0
BITMAP
F8
C0
C0
F0
18
98
D8
70
ENDCHAR
STARTCHAR char448
ENCODING 448
SWIDTH 288 0
DWIDTH 3 0
BBX 1 10 1 -2
BITMAP
80
80
80
80
80
80
80
80
80
80
ENDCHAR
STARTCHAR char450
ENCODING 450
SWIDTH 576 0
DWIDTH 6 0
BBX 5 10 0 -1
BITMAP
20
20
20
20
F8
20
F8
20
20
20
ENDCHAR
STARTCHAR char451
ENCODING 451
SWIDTH 384 0
DWIDTH 4 0
BBX 2 8 1 0
BITMAP
C0
C0
C0
C0
80
80
00
C0
ENDCHAR
STARTCHAR char461
ENCODING 461
SWIDTH 768 0
DWIDTH 8 0
BBX 7 11 0 0
BITMAP
28
10
00
38
38
6C
6C
6C
FE
C6
C6
ENDCHAR
STARTCHAR char462
ENCODING 462
SWIDTH 576 0
DWIDTH 6 0
BBX 6 9 0 0
BITMAP
50
20
00
70
98
78
D8
D8
6C
ENDCHAR
STARTCHAR char463
ENCODING 463
SWIDTH 288 0
DWIDTH 3 0
BBX 3 11 0 0
BITMAP
A0
40
00
C0
C0
C0
C0
C0
C0
C0
C0
ENDCHAR
STARTCHAR char464
ENCODING 464
SWIDTH 288 0
DWIDTH 3 0
BBX 3 9 0 0
BITMAP
A0
40
00
C0
C0
C0
C0
C0
C0
ENDCHAR
STARTCHAR char465
ENCODING 465
SWIDTH 768 0
DWIDTH 8 0
BBX 7 11 0 0
BITMAP
28
10
00
38
6C
C6
C6
C6
C6
6C
38
ENDCHAR
STARTCHAR char466
ENCODING 466
SWIDTH 576 0
DWIDTH 6 0
BBX 5 9 0 0
BITMAP
50
20
00
70
D8
D8
D8
D8
70
ENDCHAR
STARTCHAR char467
ENCODING 467
SWIDTH 672 0
DWIDTH 7 0
BBX 6 11 0 0
BITMAP
28
10
00
CC
CC
CC
CC
CC
CC
CC
78
ENDCHAR
STARTCHAR char468
ENCODING 468
SWIDTH 576 0
DWIDTH 6 0
BBX 5 9 0 0
BITMAP
50
20
00
D8
D8
D8
D8
D8
68
ENDCHAR
STARTCHAR char469
ENCODING 469
SWIDTH 672 0
DWIDTH 7 0
BBX 6 12 0 0
BITMAP
38
00
28
00
CC
CC
CC
CC
CC
CC
CC
78
ENDCHAR
STARTCHAR char470
ENCODING 470
SWIDTH 576 0
DWIDTH 6 0
BBX 5 11 0 0
BITMAP
70
00
50
50
00
D8
D8
D8
D8
D8
68
ENDCHAR
STARTCHAR char471
ENCODING 471
SWIDTH 672 0
DWIDTH 7 0
BBX 6 13 0 0
BITMAP
10
20
00
28
00
CC
CC
CC
CC
CC
CC
CC
78
ENDCHAR
STARTCHAR char472
ENCODING 472
SWIDTH 576 0
DWIDTH 6 0
BBX 5 12 0 0
BITMAP
10
20
00
50
50
00
D8
D8
D8
D8
D8
68
ENDCHAR
STARTCHAR char473
ENCODING 473
SWIDTH 672 0
DWIDTH 7 0
BBX 6 13 0 0
BITMAP
28
10
00
28
00
CC
CC
CC
CC
CC
CC
CC
78
ENDCHAR
STARTCHAR char474
ENCODING 474
SWIDTH 576 0
DWIDTH 6 0
BBX 5 12 0 0
BITMAP
50
20
00
50
50
00
D8
D8
D8
D8
D8
68
ENDCHAR
STARTCHAR char475
ENCODING 475
SWIDTH 672 0
DWIDTH 7 0
BBX 6 13 0 0
BITMAP
20
10
00
28
00
CC
CC
CC
CC
CC
CC
CC
78
ENDCHAR
STARTCHAR char476
ENCODING 476
SWIDTH 576 0
DWIDTH 6 0
BBX 5 12 0 0
BITMAP
40
20
00
50
50
00
D8
D8
D8
D8
D8
68
ENDCHAR
STARTCHAR char477
ENCODING 477
SWIDTH 576 0
DWIDTH 6 0
BBX 5 6 0 0
BITMAP
70
D8
18
F8
D8
70
ENDCHAR
STARTCHAR char478
ENCODING 478
SWIDTH 768 0
DWIDTH 8 0
BBX 7 12 0 0
BITMAP
38
00
28
00
38
38
6C
6C
6C
FE
C6
C6
ENDCHAR
STARTCHAR char479
ENCODING 479
SWIDTH 576 0
DWIDTH 6 0
BBX 6 11 0 0
BITMAP
70
00
50
50
00
70
98
78
D8
D8
6C
ENDCHAR
STARTCHAR char480
ENCODING 480
SWIDTH 768 0
DWIDTH 8 0
BBX 7 12 0 0
BITMAP
38
00
10
00
38
38
6C
6C
6C
FE
C6
C6
ENDCHAR
STARTCHAR char481
ENCODING 481
SWIDTH 576 0
DWIDTH 6 0
BBX 6 10 0 0
BITMAP
70
00
20
00
70
98
78
D8
D8
6C
ENDCHAR
STARTCHAR char482
ENCODING 482
SWIDTH 960 0
DWIDTH 10 0
BBX 9 10 0 0
BITMAP
1C00
0000
3F80
3C00
6C00
6F80
6C00
FC00
CC00
CF80
ENDCHAR
STARTCHAR char483
ENCODING 483
SWIDTH 864 0
DWIDTH 9 0
BBX 8 8 0 0
BITMAP
1C
00
7E
9B
7F
D8
DB
6E
ENDCHAR
STARTCHAR char484
ENCODING 484
SWIDTH 768 0
DWIDTH 8 0
BBX 7 8 0 0
BITMAP
3C
66
C2
C0
CE
CE
66
3A
ENDCHAR
STARTCHAR char485
ENCODING 485
SWIDTH 576 0
DWIDTH 6 0
BBX 5 8 0 -2
BITMAP
68
D8
98
98
D8
F8
18
70
ENDCHAR
STARTCHAR char486
ENCODING 486
SWIDTH 768 0
DWIDTH 8 0
BBX 7 11 0 0
BITMAP
28
10
00
3C
66
C2
C0
CE
C6
66
3A
ENDCHAR
STARTCHAR char487
ENCODING 487
SWIDTH 576 0
DWIDTH 6 0
BBX 5 11 0 -2
BITMAP
50
20
00
68
D8
98
98
D8
78
18
70
ENDCHAR
STARTCHAR char488
ENCODING 488
SWIDTH 672 0
DWIDTH 7 0
BBX 7 11 0 0
BITMAP
50
20
00
CC
D8
F0
E0
F0
D8
CC
C6
ENDCHAR
STARTCHAR char489
ENCODING 489
SWIDTH 576 0
DWIDTH 6 0
BBX 6 11 0 0
BITMAP
50
20
00
C0
C0
D8
F0
E0
F0
D8
CC
ENDCHAR
STARTCHAR char490
ENCODING 490
SWIDTH 768 0
DWIDTH 8 0
BBX 7 10 0 -2
BITMAP
38
6C
C6
C6
C6
C6
6C
38
10
18
ENDCHAR
STARTCHAR char491
ENCODING 491
SWIDTH 576 0
DWIDTH 6 0
BBX 5 8 0 -2
BITMAP
70
D8
D8
D8
D8
70
20
30
ENDCHAR
STARTCHAR char492
ENCODING 492
SWIDTH 768 0
DWIDTH 8 0
BBX 7 12 0 -2
BITMAP
38
00
38
6C
C6
C6
C6
C6
6C
38
10
18
ENDCHAR
STARTCHAR char493
ENCODING 493
SWIDTH 576 0
DWIDTH 6 0
BBX 5 10 0 -2
BITMAP
70
00
70
D8
D8
D8
D8
70
20
30
ENDCHAR
STARTCHAR char496
ENCODING 496
SWIDTH 288 0
DWIDTH 3 0
BBX 3 11 0 -2
BITMAP
A0
40
00
C0
C0
C0
C0
C0
C0
C0
80
ENDCHAR
STARTCHAR char500
ENCODING 500
SWIDTH 768 0
DWIDTH 8 0
BBX 7 11 0 0
BITMAP
08
10
00
3C
66
C2
C0
CE
C6
66
3A
ENDCHAR
STARTCHAR char501
ENCODING 501
SWIDTH 576 0
DWIDTH 6 0
BBX 5 11 0 -2
BITMAP
10
20
00
68
D8
98
98
D8
78
18
70
ENDCHAR
STARTCHAR char504
ENCODING 504
SWIDTH 768 0
DWIDTH 8 0
BBX 7 11 0 0
BITMAP
20
10
00
C6
E6
E6
D6
D6
CE
CE
C6
ENDCHAR
STARTCHAR char505
ENCODING 505
SWIDTH 576 0
DWIDTH 6 0
BBX 5 9 0 0
BITMAP
40
20
00
B0
D8
D8
D8
D8
D8
ENDCHAR
STARTCHAR char506
ENCODING 506
SWIDTH 768 0
DWIDTH 8 0
BBX 7 14 0 0
BITMAP
08
10
00
10
28
10
38
38
6C
6C
6C
FE
C6
C6
ENDCHAR
STARTCHAR char507
ENCODING 507
SWIDTH 576 0
DWIDTH 6 0
BBX 6 12 0 0
BITMAP
10
20
00
20
50
20
70
98
78
D8
D8
6C
ENDCHAR
STARTCHAR char508
ENCODING 508
SWIDTH 960 0
DWIDTH 10 0
BBX 9 11 0 0
BITMAP
0400
0800
0000
3F80
3C00
6C00
6F80
6C00
FC00
CC00
CF80
ENDCHAR
STARTCHAR char509
ENCODING 509
SWIDTH 864 0
DWIDTH 9 0
BBX 8 9 0 0
BITMAP
08
10
00
7E
9B
7F
D8
DB
6E
ENDCHAR
STARTCHAR char510
ENCODING 510
SWIDTH 768 0
DWIDTH 8 0
BBX 7 11 0 0
BITMAP
08
10
00
3A
6C
CE
D6
D6
E6
6C
B8
ENDCHAR
STARTCHAR char511
ENCODING 511
SWIDTH 576 0
DWIDTH 6 0
BBX 6 9 0 0
BITMAP
10
20
00
74
D8
F8
D8
D8
70
ENDCHAR
STARTCHAR char512
ENCODING 512
SWIDTH 768 0
DWIDTH 8 0
BBX 7 11 0 0
BITMAP
50
28
00
38
38
6C
6C
6C
FE
C6
C6
ENDCHAR
STARTCHAR char513
ENCODING 513
SWIDTH 576 0
DWIDTH 6 0
BBX 6 9 0 0
BITMAP
A0
50
00
70
98
78
D8
D8
6C
ENDCHAR
STARTCHAR char514
ENCODING 514
SWIDTH 768 0
DWIDTH 8 0
BBX 7 11 0 0
BITMAP
18
24
00
38
38
6C
6C
6C
FE
C6
C6
ENDCHAR
STARTCHAR char515
ENCODING 515
SWIDTH 576 0
DWIDTH 6 0
BBX 6 9 0 0
BITMAP
30
48
00
70
98
78
D8
D8
6C
ENDCHAR
STARTCHAR char516
ENCODING 516
SWIDTH 576 0
DWIDTH 6 0
BBX 5 11 0 0
BITMAP
A0
50
00
F8
C0
C0
F8
C0
C0
C0
F8
ENDCHAR
STARTCHAR char517
ENCODING 517
SWIDTH 576 0
DWIDTH 6 0
BBX 5 9 0 0
BITMAP
A0
50
00
70
D8
F8
C0
D8
70
ENDCHAR
STARTCHAR char518
ENCODING 518
SWIDTH 576 0
DWIDTH 6 0
BBX 5 11 0 0
BITMAP
60
90
00
F8
C0
C0
F8
C0
C0
C0
F8
ENDCHAR
STARTCHAR char519
ENCODING 519
SWIDTH 576 0
DWIDTH 6 0
BBX 5 9 0 0
BITMAP
30
48
00
70
D8
F8
C0
D8
70
ENDCHAR
STARTCHAR char520
ENCODING 520
SWIDTH 288 0
DWIDTH 3 0
BBX 4 11 -1 0
BITMAP
A0
50
00
60
60
60
60
60
60
60
60
ENDCHAR
STARTCHAR char521
ENCODING 521
SWIDTH 288 0
DWIDTH 3 0
BBX 4 9 -1 0
BITMAP
A0
50
00
60
60
60
60
60
60
ENDCHAR
STARTCHAR char522
ENCODING 522
SWIDTH 288 0
DWIDTH 3 0
BBX 4 11 -1 0
BITMAP
60
90
00
60
60
60
60
60
60
60
60
ENDCHAR
STARTCHAR char523
ENCODING 523
SWIDTH 288 0
DWIDTH 3 0
BBX 4 9 -1 0
BITMAP
60
90
00
60
60
60
60
60
60
ENDCHAR
STARTCHAR char524
ENCODING 524
SWIDTH 768 0
DWIDTH 8 0
BBX 7 11 0 0
BITMAP
50
28
00
38
6C
C6
C6
C6
C6
6C
38
ENDCHAR
STARTCHAR char525
ENCODING 525
SWIDTH 576 0
DWIDTH 6 0
BBX 5 9 0 0
BITMAP
A0
50
00
70
D8
D8
D8
D8
70
ENDCHAR
STARTCHAR char526
ENCODING 526
SWIDTH 768 0
DWIDTH 8 0
BBX 7 11 0 0
BITMAP
18
24
00
38
6C
C6
C6
C6
C6
6C
38
ENDCHAR
STARTCHAR char527
ENCODING 527
SWIDTH 576 0
DWIDTH 6 0
BBX 5 9 0 0
BITMAP
30
48
00
70
D8
D8
D8
D8
70
ENDCHAR
STARTCHAR char528
ENCODING 528
SWIDTH 672 0
DWIDTH 7 0
BBX 6 11 0 0
BITMAP
50
28
00
F8
CC
CC
CC
F8
CC
CC
CC
ENDCHAR
STARTCHAR char529
ENCODING 529
SWIDTH 384 0
DWIDTH 4 0
BBX 4 9 0 0
BITMAP
A0
50
00
B0
E0
C0
C0
C0
C0
ENDCHAR
STARTCHAR char530
ENCODING 530
SWIDTH 672 0
DWIDTH 7 0
BBX 6 11 0 0
BITMAP
30
48
00
F8
CC
CC
CC
F8
CC
CC
CC
ENDCHAR
STARTCHAR char531
ENCODING 531
SWIDTH 384 0
DWIDTH 4 0
BBX 4 9 0 0
BITMAP
60
90
00
B0
E0
C0
C0
C0
C0
ENDCHAR
STARTCHAR char532
ENCODING 532
SWIDTH 672 0
DWIDTH 7 0
BBX 6 11 0 0
BITMAP
50
28
00
CC
CC
CC
CC
CC
CC
CC
78
ENDCHAR
STARTCHAR char533
ENCODING 533
SWIDTH 576 0
DWIDTH 6 0
BBX 5 9 0 0
BITMAP
A0
50
00
D8
D8
D8
D8
D8
68
ENDCHAR
STARTCHAR char534
ENCODING 534
SWIDTH 672 0
DWIDTH 7 0
BBX 6 11 0 0
BITMAP
30
48
00
CC
CC
CC
CC
CC
CC
CC
78
ENDCHAR
STARTCHAR char535
ENCODING 535
SWIDTH 576 0
DWIDTH 6 0
BBX 5 9 0 0
BITMAP
30
48
00
D8
D8
D8
D8
D8
68
ENDCHAR
STARTCHAR char536
ENCODING 536
SWIDTH 672 0
DWIDTH 7 0
BBX 6 13 0 -5
BITMAP
78
CC
E0
78
1C
8C
CC
78
00
10
10
10
20
ENDCHAR
STARTCHAR char537
ENCODING 537
SWIDTH 576 0
DWIDTH 6 0
BBX 5 11 0 -5
BITMAP
70
D8
70
18
D8
70
00
20
20
20
40
ENDCHAR
STARTCHAR char538
ENCODING 538
SWIDTH 672 0
DWIDTH 7 0
BBX 6 13 0 -5
BITMAP
FC
30
30
30
30
30
30
30
00
10
10
10
20
ENDCHAR
STARTCHAR char539
ENCODING 539
SWIDTH 384 0
DWIDTH 4 0
BBX 3 13 0 -5
BITMAP
C0
C0
E0
C0
C0
C0
C0
60
00
40
40
40
80
ENDCHAR
STARTCHAR char542
ENCODING 542
SWIDTH 672 0
DWIDTH 7 0
BBX 6 11 0 0
BITMAP
28
10
00
CC
CC
CC
FC
CC
CC
CC
CC
ENDCHAR
STARTCHAR char543
ENCODING 543
SWIDTH 576 0
DWIDTH 6 0
BBX 5 11 0 0
BITMAP
A0
40
00
C0
C0
F0
D8
D8
D8
D8
D8
ENDCHAR
STARTCHAR char550
ENCODING 550
SWIDTH 768 0
DWIDTH 8 0
BBX 7 10 0 0
BITMAP
10
00
38
38
6C
6C
6C
FE
C6
C6
ENDCHAR
STARTCHAR char551
ENCODING 551
SWIDTH 576 0
DWIDTH 6 0
BBX 6 8 0 0
BITMAP
20
00
70
98
78
D8
D8
6C
ENDCHAR
STARTCHAR char552
ENCODING 552
SWIDTH 576 0
DWIDTH 6 0
BBX 5 10 0 -2
BITMAP
F8
C0
C0
F8
C0
C0
C0
F8
20
60
ENDCHAR
STARTCHAR char553
ENCODING 553
SWIDTH 576 0
DWIDTH 6 0
BBX 5 8 0 -2
BITMAP
70
D8
F8
C0
D8
70
20
60
ENDCHAR
STARTCHAR char554
ENCODING 554
SWIDTH 768 0
DWIDTH 8 0
BBX 7 12 0 0
BITMAP
38
00
28
00
38
6C
C6
C6
C6
C6
6C
38
ENDCHAR
STARTCHAR char555
ENCODING 555
SWIDTH 576 0
DWIDTH 6 0
BBX 5 11 0 0
BITMAP
70
00
50
50
00
70
D8
D8
D8
D8
70
ENDCHAR
STARTCHAR char556
ENCODING 556
SWIDTH 768 0
DWIDTH 8 0
BBX 7 13 0 0
BITMAP
38
00
14
28
00
38
6C
C6
C6
C6
C6
6C
38
ENDCHAR
STARTCHAR char557
ENCODING 557
SWIDTH 576 0
DWIDTH 6 0
BBX 5 11 0 0
BITMAP
70
00
50
A0
00
70
D8
D8
D8
D8
70
ENDCHAR
STARTCHAR char558
ENCODING 558
SWIDTH 768 0
DWIDTH 8 0
BBX 7 10 0 0
BITMAP
10
00
38
6C
C6
C6
C6
C6
6C
38
ENDCHAR
STARTCHAR char559
ENCODING 559
SWIDTH 576 0
DWIDTH 6 0
BBX 5 8 0 0
BITMAP
20
00
70
D8
D8
D8
D8
70
ENDCHAR
STARTCHAR char560
ENCODING 560
SWIDTH 768 0
DWIDTH 8 0
BBX 7 12 0 0
BITMAP
38
00
10
00
38
6C
C6
C6
C6
C6
6C
38
ENDCHAR
STARTCHAR char561
ENCODING 561
SWIDTH 576 0
DWIDTH 6 0
BBX 5 10 0 0
BITMAP
70
00
20
00
70
D8
D8
D8
D8
70
ENDCHAR
STARTCHAR char562
ENCODING 562
SWIDTH 864 0
DWIDTH 9 0
BBX 8 10 0 0
BITMAP
1C
00
C3
C3
66
66
3C
18
18
18
ENDCHAR
STARTCHAR char563
ENCODING 563
SWIDTH 576 0
DWIDTH 6 0
BBX 5 10 0 -2
BITMAP
70
00
D8
D8
D8
D8
78
30
30
60
ENDCHAR
STARTCHAR char592
ENCODING 592
SWIDTH 576 0
DWIDTH 6 0
BBX 6 6 0 0
BITMAP
D8
6C
6C
78
64
38
ENDCHAR
STARTCHAR char596
ENCODING 596
SWIDTH 480 0
DWIDTH 5 0
BBX 4 6 0 0
BITMAP
E0
B0
30
30
B0
E0
ENDCHAR
STARTCHAR char600
ENCODING 600
SWIDTH 576 0
DWIDTH 6 0
BBX 5 6 0 0
BITMAP
70
D8
F8
18
D8
70
ENDCHAR
STARTCHAR char601
ENCODING 601
SWIDTH 576 0
DWIDTH 6 0
BBX 5 6 0 0
BITMAP
70
D8
18
F8
D8
70
ENDCHAR
STARTCHAR char607
ENCODING 607
SWIDTH 384 0
DWIDTH 4 0
BBX 4 8 0 -2
BITMAP
30
30
30
30
30
70
30
E0
ENDCHAR
STARTCHAR char613
ENCODING 613
SWIDTH 576 0
DWIDTH 6 0
BBX 5 8 0 -2
BITMAP
D8
D8
D8
D8
D8
78
18
18
ENDCHAR
STARTCHAR char629
ENCODING 629
SWIDTH 576 0
DWIDTH 6 0
BBX 5 6 0 0
BITMAP
70
D8
F8
D8
D8
70
ENDCHAR
STARTCHAR char633
ENCODING 633
SWIDTH 384 0
DWIDTH 4 0
BBX 4 6 0 0
BITMAP
30
30
30
30
70
D0
ENDCHAR
STARTCHAR char647
ENCODING 647
SWIDTH 384 0
DWIDTH 4 0
BBX 3 8 0 0
BITMAP
C0
60
60
60
60
E0
60
60
ENDCHAR
STARTCHAR char648
ENCODING 648
SWIDTH 384 0
DWIDTH 4 0
BBX 3 10 0 -2
BITMAP
C0
C0
E0
C0
C0
C0
C0
C0
C0
40
ENDCHAR
STARTCHAR char649
ENCODING 649
SWIDTH 576 0
DWIDTH 6 0
BBX 5 6 0 0
BITMAP
D8
D8
F8
D8
D8
68
ENDCHAR
STARTCHAR char652
ENCODING 652
SWIDTH 576 0
DWIDTH 6 0
BBX 5 6 0 0
BITMAP
20
70
50
D8
D8
D8
ENDCHAR
STARTCHAR char653
ENCODING 653
SWIDTH 768 0
DWIDTH 8 0
BBX 7 6 0 0
BITMAP
6C
6C
6C
D6
D6
D6
ENDCHAR
STARTCHAR char654
ENCODING 654
SWIDTH 576 0
DWIDTH 6 0
BBX 5 8 0 0
BITMAP
30
60
60
F0
D8
D8
D8
D8
ENDCHAR
STARTCHAR char670
ENCODING 670
SWIDTH 576 0
DWIDTH 6 0
BBX 6 8 0 -2
BITMAP
CC
6C
3C
1C
3C
6C
0C
0C
ENDCHAR
STARTCHAR char699
ENCODING 699
SWIDTH 288 0
DWIDTH 3 0
BBX 2 3 0 5
BITMAP
40
80
C0
ENDCHAR
STARTCHAR char700
ENCODING 700
SWIDTH 288 0
DWIDTH 3 0
BBX 2 3 0 5
BITMAP
C0
40
80
ENDCHAR
STARTCHAR char701
ENCODING 701
SWIDTH 288 0
DWIDTH 3 0
BBX 2 3 0 5
BITMAP
C0
80
40
ENDCHAR
STARTCHAR char710
ENCODING 710
SWIDTH 384 0
DWIDTH 4 0
BBX 3 2 0 6
BITMAP
40
A0
ENDCHAR
STARTCHAR char711
ENCODING 711
SWIDTH 384 0
DWIDTH 4 0
BBX 3 2 0 6
BITMAP
A0
40
ENDCHAR
STARTCHAR char712
ENCODING 712
SWIDTH 288 0
DWIDTH 3 0
BBX 1 3 1 5
BITMAP
80
80
80
ENDCHAR
STARTCHAR char713
ENCODING 713
SWIDTH 288 0
DWIDTH 3 0
BBX 3 1 0 7
BITMAP
E0
ENDCHAR
STARTCHAR char714
ENCODING 714
SWIDTH 288 0
DWIDTH 3 0
BBX 2 2 0 7
BITMAP
40
80
ENDCHAR
STARTCHAR char715
ENCODING 715
SWIDTH 288 0
DWIDTH 3 0
BBX 2 2 0 6
BITMAP
80
40
ENDCHAR
STARTCHAR char717
ENCODING 717
SWIDTH 288 0
DWIDTH 3 0
BBX 3 1 0 -2
BITMAP
E0
ENDCHAR
STARTCHAR char718
ENCODING 718
SWIDTH 288 0
DWIDTH 3 0
BBX 2 2 0 -3
BITMAP
80
40
ENDCHAR
STARTCHAR char719
ENCODING 719
SWIDTH 288 0
DWIDTH 3 0
BBX 2 2 0 -3
BITMAP
40
80
ENDCHAR
STARTCHAR char728
ENCODING 728
SWIDTH 384 0
DWIDTH 4 0
BBX 4 2 0 6
BITMAP
90
60
ENDCHAR
STARTCHAR char729
ENCODING 729
SWIDTH 192 0
DWIDTH 2 0
BBX 1 1 0 7
BITMAP
80
ENDCHAR
STARTCHAR char730
ENCODING 730
SWIDTH 384 0
DWIDTH 4 0
BBX 3 3 0 5
BITMAP
40
A0
40
ENDCHAR
STARTCHAR char731
ENCODING 731
SWIDTH 288 0
DWIDTH 3 0
BBX 2 2 0 -2
BITMAP
80
C0
ENDCHAR
STARTCHAR char732
ENCODING 732
SWIDTH 384 0
DWIDTH 4 0
BBX 4 2 0 6
BITMAP
50
A0
ENDCHAR
STARTCHAR char733
ENCODING 733
SWIDTH 480 0
DWIDTH 5 0
BBX 4 2 0 6
BITMAP
50
A0
ENDCHAR
STARTCHAR char750
ENCODING 750
SWIDTH 576 0
DWIDTH 6 0
BBX 5 3 0 5
BITMAP
D8
48
90
ENDCHAR
STARTCHAR char894
ENCODING 894
SWIDTH 288 0
DWIDTH 3 0
BBX 2 8 0 -2
BITMAP
40
40
00
00
40
40
40
80
ENDCHAR
STARTCHAR char900
ENCODING 900
SWIDTH 288 0
DWIDTH 3 0
BBX 2 2 0 7
BITMAP
40
80
ENDCHAR
STARTCHAR char901
ENCODING 901
SWIDTH 288 0
DWIDTH 3 0
BBX 3 4 0 7
BITMAP
20
40
00
A0
ENDCHAR
STARTCHAR char903
ENCODING 903
SWIDTH 288 0
DWIDTH 3 0
BBX 2 1 0 3
BITMAP
C0
ENDCHAR
STARTCHAR char956
ENCODING 956
SWIDTH 576 0
DWIDTH 6 0
BBX 5 8 0 -2
BITMAP
D8
D8
D8
D8
D8
E8
C0
C0
ENDCHAR
STARTCHAR char7680
ENCODING 7680
SWIDTH 768 0
DWIDTH 8 0
BBX 7 12 0 -4
BITMAP
38
38
6C
6C
6C
FE
C6
C6
00
10
28
10
ENDCHAR
STARTCHAR char7681
ENCODING 7681
SWIDTH 576 0
DWIDTH 6 0
BBX 6 10 0 -4
BITMAP
70
98
78
D8
D8
6C
00
10
28
10
ENDCHAR
STARTCHAR char7682
ENCODING 7682
SWIDTH 672 0
DWIDTH 7 0
BBX 6 10 0 0
BITMAP
20
00
F8
CC
CC
F8
CC
CC
CC
F8
ENDCHAR
STARTCHAR char7683
ENCODING 7683
SWIDTH 576 0
DWIDTH 6 0
BBX 5 10 0 0
BITMAP
40
00
C0
C0
F0
D8
C8
C8
D8
F0
ENDCHAR
STARTCHAR char7684
ENCODING 7684
SWIDTH 672 0
DWIDTH 7 0
BBX 6 10 0 -2
BITMAP
F8
CC
CC
F8
CC
CC
CC
F8
00
20
ENDCHAR
STARTCHAR char7685
ENCODING 7685
SWIDTH 576 0
DWIDTH 6 0
BBX 5 10 0 -2
BITMAP
C0
C0
F0
D8
C8
C8
D8
F0
00
20
ENDCHAR
STARTCHAR char7686
ENCODING 7686
SWIDTH 672 0
DWIDTH 7 0
BBX 6 10 0 -2
BITMAP
F8
CC
CC
F8
CC
CC
CC
F8
00
70
ENDCHAR
STARTCHAR char7687
ENCODING 7687
SWIDTH 576 0
DWIDTH 6 0
BBX 5 10 0 -2
BITMAP
C0
C0
F0
D8
C8
C8
D8
F0
00
70
ENDCHAR
STARTCHAR char7688
ENCODING 7688
SWIDTH 768 0
DWIDTH 8 0
BBX 7 13 0 -2
BITMAP
08
10
00
3C
66
C2
C0
C0
C2
66
3C
10
30
ENDCHAR
STARTCHAR char7689
ENCODING 7689
SWIDTH 480 0
DWIDTH 5 0
BBX 4 11 0 -2
BITMAP
20
40
00
70
D0
C0
C0
D0
70
20
60
ENDCHAR
STARTCHAR char7690
ENCODING 7690
SWIDTH 672 0
DWIDTH 7 0
BBX 6 10 0 0
BITMAP
20
00
F0
D8
CC
CC
CC
CC
D8
F0
ENDCHAR
STARTCHAR char7691
ENCODING 7691
SWIDTH 576 0
DWIDTH 6 0
BBX 5 10 0 0
BITMAP
10
00
18
18
78
D8
98
98
D8
78
ENDCHAR
STARTCHAR char7692
ENCODING 7692
SWIDTH 672 0
DWIDTH 7 0
BBX 6 10 0 -2
BITMAP
F0
D8
CC
CC
CC
CC
D8
F0
00
20
ENDCHAR
STARTCHAR char7693
ENCODING 7693
SWIDTH 576 0
DWIDTH 6 0
BBX 5 10 0 -2
BITMAP
18
18
78
D8
98
98
D8
78
00
20
ENDCHAR
STARTCHAR char7694
ENCODING 7694
SWIDTH 672 0
DWIDTH 7 0
BBX 6 10 0 -2
BITMAP
F0
D8
CC
CC
CC
CC
D8
F0
00
70
ENDCHAR
STARTCHAR char7695
ENCODING 7695
SWIDTH 576 0
DWIDTH 6 0
BBX 5 10 0 -2
BITMAP
18
18
78
D8
98
98
D8
78
00
70
ENDCHAR
STARTCHAR char7696
ENCODING 7696
SWIDTH 672 0
DWIDTH 7 0
BBX 6 10 0 -2
BITMAP
F0
D8
CC
CC
CC
CC
D8
F0
20
60
ENDCHAR
STARTCHAR char7697
ENCODING 7697
SWIDTH 576 0
DWIDTH 6 0
BBX 5 10 0 -2
BITMAP
18
18
78
D8
98
98
D8
78
20
60
ENDCHAR
STARTCHAR char7698
ENCODING 7698
SWIDTH 672 0
DWIDTH 7 0
BBX 6 11 0 -3
BITMAP
F0
D8
CC
CC
CC
CC
D8
F0
00
20
50
ENDCHAR
STARTCHAR char7699
ENCODING 7699
SWIDTH 576 0
DWIDTH 6 0
BBX 5 11 0 -3
BITMAP
18
18
78
D8
98
98
D8
78
00
20
50
ENDCHAR
STARTCHAR char7700
ENCODING 7700
SWIDTH 576 0
DWIDTH 6 0
BBX 5 13 0 0
BITMAP
40
20
00
70
00
F8
C0
C0
F8
C0
C0
C0
F8
ENDCHAR
STARTCHAR char7701
ENCODING 7701
SWIDTH 576 0
DWIDTH 6 0
BBX 5 11 0 0
BITMAP
40
20
00
70
00
70
D8
F8
C0
D8
70
ENDCHAR
STARTCHAR char7702
ENCODING 7702
SWIDTH 576 0
DWIDTH 6 0
BBX 5 13 0 0
BITMAP
10
20
00
70
00
F8
C0
C0
F8
C0
C0
C0
F8
ENDCHAR
STARTCHAR char7703
ENCODING 7703
SWIDTH 576 0
DWIDTH 6 0
BBX 5 11 0 0
BITMAP
10
20
00
70
00
70
D8
F8
C0
D8
70
ENDCHAR
STARTCHAR char7704
ENCODING 7704
SWIDTH 576 0
DWIDTH 6 0
BBX 5 11 0 -3
BITMAP
F8
C0
C0
F8
C0
C0
C0
F8
00
20
50
ENDCHAR
STARTCHAR char7705
ENCODING 7705
SWIDTH 576 0
DWIDTH 6 0
BBX 5 9 0 -3
BITMAP
70
D8
F8
C0
D8
70
00
20
50
ENDCHAR
STARTCHAR char7706
ENCODING 7706
SWIDTH 576 0
DWIDTH 6 0
BBX 5 11 0 -3
BITMAP
F8
C0
C0
F8
C0
C0
C0
F8
00
50
A0
ENDCHAR
STARTCHAR char7707
ENCODING 7707
SWIDTH 576 0
DWIDTH 6 0
BBX 5 9 0 -3
BITMAP
70
D8
F8
C0
D8
70
00
50
A0
ENDCHAR
STARTCHAR char7708
ENCODING 7708
SWIDTH 576 0
DWIDTH 6 0
BBX 5 13 0 -2
BITMAP
90
60
00
F8
C0
C0
F8
C0
C0
C0
F8
20
60
ENDCHAR
STARTCHAR char7709
ENCODING 7709
SWIDTH 576 0
DWIDTH 6 0
BBX 5 11 0 -2
BITMAP
48
30
00
70
D8
F8
C0
D8
70
20
60
ENDCHAR
STARTCHAR char7710
ENCODING 7710
SWIDTH 576 0
DWIDTH 6 0
BBX 5 10 0 0
BITMAP
20
00
F8
C0
C0
F0
C0
C0
C0
C0
ENDCHAR
STARTCHAR char7711
ENCODING 7711
SWIDTH 384 0
DWIDTH 4 0
BBX 4 10 0 0
BITMAP
40
00
70
C0
E0
C0
C0
C0
C0
C0
ENDCHAR
STARTCHAR char7712
ENCODING 7712
SWIDTH 768 0
DWIDTH 8 0
BBX 7 10 0 0
BITMAP
38
00
3C
66
C2
C0
CE
C6
66
3A
ENDCHAR
STARTCHAR char7713
ENCODING 7713
SWIDTH 576 0
DWIDTH 6 0
BBX 5 10 0 -2
BITMAP
70
00
68
D8
98
98
D8
78
18
70
ENDCHAR
STARTCHAR char7714
ENCODING 7714
SWIDTH 672 0
DWIDTH 7 0
BBX 6 10 0 0
BITMAP
10
00
CC
CC
CC
FC
CC
CC
CC
CC
ENDCHAR
STARTCHAR char7715
ENCODING 7715
SWIDTH 576 0
DWIDTH 6 0
BBX 5 10 0 0
BITMAP
40
00
C0
C0
F0
D8
D8
D8
D8
D8
ENDCHAR
STARTCHAR char7716
ENCODING 7716
SWIDTH 672 0
DWIDTH 7 0
BBX 6 10 0 -2
BITMAP
CC
CC
CC
FC
CC
CC
CC
CC
00
10
ENDCHAR
STARTCHAR char7717
ENCODING 7717
SWIDTH 576 0
DWIDTH 6 0
BBX 5 10 0 -2
BITMAP
C0
C0
F0
D8
D8
D8
D8
D8
00
20
ENDCHAR
STARTCHAR char7718
ENCODING 7718
SWIDTH 672 0
DWIDTH 7 0
BBX 6 10 0 0
BITMAP
28
00
CC
CC
CC
FC
CC
CC
CC
CC
ENDCHAR
STARTCHAR char7719
ENCODING 7719
SWIDTH 576 0
DWIDTH 6 0
BBX 5 10 0 0
BITMAP
A0
00
C0
C0
F0
D8
D8
D8
D8
D8
ENDCHAR
STARTCHAR char7720
ENCODING 7720
SWIDTH 672 0
DWIDTH 7 0
BBX 6 10 0 -2
BITMAP
CC
CC
CC
FC
CC
CC
CC
CC
10
30
ENDCHAR
STARTCHAR char7721
ENCODING 7721
SWIDTH 576 0
DWIDTH 6 0
BBX 5 10 0 -2
BITMAP
C0
C0
F0
D8
D8
D8
D8
D8
20
60
ENDCHAR
STARTCHAR char7722
ENCODING 7722
SWIDTH 672 0
DWIDTH 7 0
BBX 6 11 0 -3
BITMAP
CC
CC
CC
FC
CC
CC
CC
CC
00
48
30
ENDCHAR
STARTCHAR char7723
ENCODING 7723
SWIDTH 576 0
DWIDTH 6 0
BBX 5 11 0 -3
BITMAP
C0
C0
F0
D8
D8
D8
D8
D8
00
48
30
ENDCHAR
STARTCHAR char7724
ENCODING 7724
SWIDTH 288 0
DWIDTH 3 0
BBX 4 11 -1 -3
BITMAP
60
60
60
60
60
60
60
60
00
50
A0
ENDCHAR
STARTCHAR char7725
ENCODING 7725
SWIDTH 288 0
DWIDTH 3 0
BBX 4 11 -1 -3
BITMAP
60
00
60
60
60
60
60
60
00
50
A0
ENDCHAR
STARTCHAR char7726
ENCODING 7726
SWIDTH 288 0
DWIDTH 3 0
BBX 3 13 0 0
BITMAP
20
40
00
A0
00
C0
C0
C0
C0
C0
C0
C0
C0
ENDCHAR
STARTCHAR char7727
ENCODING 7727
SWIDTH 288 0
DWIDTH 3 0
BBX 3 12 0 0
BITMAP
20
40
00
A0
A0
00
C0
C0
C0
C0
C0
C0
ENDCHAR
STARTCHAR char7728
ENCODING 7728
SWIDTH 672 0
DWIDTH 7 0
BBX 7 11 0 0
BITMAP
10
20
00
CC
D8
F0
E0
F0
D8
CC
C6
ENDCHAR
STARTCHAR char7729
ENCODING 7729
SWIDTH 576 0
DWIDTH 6 0
BBX 6 11 0 0
BITMAP
10
20
00
C0
C0
D8
F0
E0
F0
D8
CC
ENDCHAR
STARTCHAR char7730
ENCODING 7730
SWIDTH 672 0
DWIDTH 7 0
BBX 7 10 0 -2
BITMAP
CC
D8
F0
E0
F0
D8
CC
C6
00
10
ENDCHAR
STARTCHAR char7731
ENCODING 7731
SWIDTH 576 0
DWIDTH 6 0
BBX 6 10 0 -2
BITMAP
C0
C0
D8
F0
E0
F0
D8
CC
00
20
ENDCHAR
STARTCHAR char7732
ENCODING 7732
SWIDTH 672 0
DWIDTH 7 0
BBX 7 10 0 -2
BITMAP
CC
D8
F0
E0
F0
D8
CC
C6
00
38
ENDCHAR
STARTCHAR char7733
ENCODING 7733
SWIDTH 576 0
DWIDTH 6 0
BBX 6 10 0 -2
BITMAP
C0
C0
D8
F0
E0
F0
D8
CC
00
70
ENDCHAR
STARTCHAR char7734
ENCODING 7734
SWIDTH 576 0
DWIDTH 6 0
BBX 5 10 0 -2
BITMAP
C0
C0
C0
C0
C0
C0
C0
F8
00
20
ENDCHAR
STARTCHAR char7735
ENCODING 7735
SWIDTH 288 0
DWIDTH 3 0
BBX 2 10 0 -2
BITMAP
C0
C0
C0
C0
C0
C0
C0
C0
00
40
ENDCHAR
STARTCHAR char7736
ENCODING 7736
SWIDTH 576 0
DWIDTH 6 0
BBX 5 12 0 -2
BITMAP
E0
00
C0
C0
C0
C0
C0
C0
C0
F8
00
20
ENDCHAR
STARTCHAR char7737
ENCODING 7737
SWIDTH 288 0
DWIDTH 3 0
BBX 3 12 0 -2
BITMAP
E0
00
C0
C0
C0
C0
C0
C0
C0
C0
00
40
ENDCHAR
STARTCHAR char7738
ENCODING 7738
SWIDTH 576 0
DWIDTH 6 0
BBX 5 10 0 -2
BITMAP
C0
C0
C0
C0
C0
C0
C0
F8
00
70
ENDCHAR
STARTCHAR char7739
ENCODING 7739
SWIDTH 288 0
DWIDTH 3 0
BBX 3 10 0 -2
BITMAP
C0
C0
C0
C0
C0
C0
C0
C0
00
E0
ENDCHAR
STARTCHAR char7740
ENCODING 7740
SWIDTH 576 0
DWIDTH 6 0
BBX 5 11 0 -3
BITMAP
C0
C0
C0
C0
C0
C0
C0
F8
00
20
50
ENDCHAR
STARTCHAR char7741
ENCODING 7741
SWIDTH 288 0
DWIDTH 3 0
BBX 3 11 0 -3
BITMAP
C0
C0
C0
C0
C0
C0
C0
C0
00
40
A0
ENDCHAR
STARTCHAR char7742
ENCODING 7742
SWIDTH 960 0
DWIDTH 10 0
BBX 9 11 0 0
BITMAP
0400
0800
0000
C180
E380
E380
F780
D580
DD80
C980
C980
ENDCHAR
STARTCHAR char7743
ENCODING 7743
SWIDTH 864 0
DWIDTH 9 0
BBX 8 9 0 0
BITMAP
08
10
00
B6
DB
DB
DB
DB
DB
ENDCHAR
STARTCHAR char7744
ENCODING 7744
SWIDTH 960 0
DWIDTH 10 0
BBX 9 10 0 0
BITMAP
0800
0000
C180
E380
E380
F780
D580
DD80
C980
C980
ENDCHAR
STARTCHAR char7745
ENCODING 7745
SWIDTH 864 0
DWIDTH 9 0
BBX 8 8 0 0
BITMAP
10
00
B6
DB
DB
DB
DB
DB
ENDCHAR
STARTCHAR char7746
ENCODING 7746
SWIDTH 960 0
DWIDTH 10 0
BBX 9 10 0 -2
BITMAP
C180
E380
E380
F780
D580
DD80
C980
C980
0000
0800
ENDCHAR
STARTCHAR char7747
ENCODING 7747
SWIDTH 864 0
DWIDTH 9 0
BBX 8 8 0 -2
BITMAP
B6
DB
DB
DB
DB
DB
00
08
ENDCHAR
STARTCHAR char7748
ENCODING 7748
SWIDTH 768 0
DWIDTH 8 0
BBX 7 10 0 0
BITMAP
10
00
C6
E6
E6
D6
D6
CE
CE
C6
ENDCHAR
STARTCHAR char7749
ENCODING 7749
SWIDTH 576 0
DWIDTH 6 0
BBX 5 8 0 0
BITMAP
20
00
B0
D8
D8
D8
D8
D8
ENDCHAR
STARTCHAR char7750
ENCODING 7750
SWIDTH 768 0
DWIDTH 8 0
BBX 7 10 0 -2
BITMAP
C6
E6
E6
D6
D6
CE
CE
C6
00
10
ENDCHAR
STARTCHAR char7751
ENCODING 7751
SWIDTH 576 0
DWIDTH 6 0
BBX 5 8 0 -2
BITMAP
B0
D8
D8
D8
D8
D8
00
20
ENDCHAR
STARTCHAR char7752
ENCODING 7752
SWIDTH 768 0
DWIDTH 8 0
BBX 7 10 0 -2
BITMAP
C6
E6
E6
D6
D6
CE
CE
C6
00
38
ENDCHAR
STARTCHAR char7753
ENCODING 7753
SWIDTH 576 0
DWIDTH 6 0
BBX 5 8 0 -2
BITMAP
B0
D8
D8
D8
D8
D8
00
70
ENDCHAR
STARTCHAR char7754
ENCODING 7754
SWIDTH 768 0
DWIDTH 8 0
BBX 7 11 0 -3
BITMAP
C6
E6
E6
D6
D6
CE
CE
C6
00
10
28
ENDCHAR
STARTCHAR char7755
ENCODING 7755
SWIDTH 576 0
DWIDTH 6 0
BBX 5 9 0 -3
BITMAP
B0
D8
D8
D8
D8
D8
00
20
50
ENDCHAR
STARTCHAR char7756
ENCODING 7756
SWIDTH 768 0
DWIDTH 8 0
BBX 7 14 0 0
BITMAP
08
10
00
14
28
00
38
6C
C6
C6
C6
C6
6C
38
ENDCHAR
STARTCHAR char7757
ENCODING 7757
SWIDTH 576 0
DWIDTH 6 0
BBX 5 12 0 0
BITMAP
10
20
00
50
A0
00
70
D8
D8
D8
D8
70
ENDCHAR
STARTCHAR char7758
ENCODING 7758
SWIDTH 768 0
DWIDTH 8 0
BBX 7 13 0 0
BITMAP
28
00
14
28
00
38
6C
C6
C6
C6
C6
6C
38
ENDCHAR
STARTCHAR char7759
ENCODING 7759
SWIDTH 576 0
DWIDTH 6 0
BBX 5 11 0 0
BITMAP
50
00
50
A0
00
70
D8
D8
D8
D8
70
ENDCHAR
STARTCHAR char7760
ENCODING 7760
SWIDTH 768 0
DWIDTH 8 0
BBX 7 13 0 0
BITMAP
20
10
00
38
00
38
6C
C6
C6
C6
C6
6C
38
ENDCHAR
STARTCHAR char7761
ENCODING 7761
SWIDTH 576 0
DWIDTH 6 0
BBX 5 11 0 0
BITMAP
40
20
00
70
00
70
D8
D8
D8
D8
70
ENDCHAR
STARTCHAR char7762
ENCODING 7762
SWIDTH 768 0
DWIDTH 8 0
BBX 7 13 0 0
BITMAP
08
10
00
38
00
38
6C
C6
C6
C6
C6
6C
38
ENDCHAR
STARTCHAR char7763
ENCODING 7763
SWIDTH 576 0
DWIDTH 6 0
BBX 5 11 0 0
BITMAP
10
20
00
70
00
70
D8
D8
D8
D8
70
ENDCHAR
STARTCHAR char7764
ENCODING 7764
SWIDTH 672 0
DWIDTH 7 0
BBX 6 11 0 0
BITMAP
10
20
00
F8
CC
CC
CC
F8
C0
C0
C0
ENDCHAR
STARTCHAR char7765
ENCODING 7765
SWIDTH 576 0
DWIDTH 6 0
BBX 5 11 0 -2
BITMAP
10
20
00
B0
D8
C8
C8
D8
F0
C0
C0
ENDCHAR
STARTCHAR char7766
ENCODING 7766
SWIDTH 672 0
DWIDTH 7 0
BBX 6 10 0 0
BITMAP
20
00
F8
CC
CC
CC
F8
C0
C0
C0
ENDCHAR
STARTCHAR char7767
ENCODING 7767
SWIDTH 576 0
DWIDTH 6 0
BBX 5 10 0 -2
BITMAP
20
00
B0
D8
C8
C8
D8
F0
C0
C0
ENDCHAR
STARTCHAR char7768
ENCODING 7768
SWIDTH 672 0
DWIDTH 7 0
BBX 6 10 0 0
BITMAP
20
00
F8
CC
CC
CC
F8
CC
CC
CC
ENDCHAR
STARTCHAR char7769
ENCODING 7769
SWIDTH 384 0
DWIDTH 4 0
BBX 4 8 0 0
BITMAP
40
00
B0
E0
C0
C0
C0
C0
ENDCHAR
STARTCHAR char7770
ENCODING 7770
SWIDTH 672 0
DWIDTH 7 0
BBX 6 10 0 -2
BITMAP
F8
CC
CC
CC
F8
CC
CC
CC
00
10
ENDCHAR
STARTCHAR char7771
ENCODING 7771
SWIDTH 384 0
DWIDTH 4 0
BBX 4 8 0 -2
BITMAP
B0
E0
C0
C0
C0
C0
00
40
ENDCHAR
STARTCHAR char7772
ENCODING 7772
SWIDTH 672 0
DWIDTH 7 0
BBX 6 12 0 -2
BITMAP
70
00
F8
CC
CC
CC
F8
CC
CC
CC
00
10
ENDCHAR
STARTCHAR char7773
ENCODING 7773
SWIDTH 384 0
DWIDTH 4 0
BBX 4 10 0 -2
BITMAP
E0
00
B0
E0
C0
C0
C0
C0
00
40
ENDCHAR
STARTCHAR char7774
ENCODING 7774
SWIDTH 672 0
DWIDTH 7 0
BBX 6 10 0 -2
BITMAP
F8
CC
CC
CC
F8
CC
CC
CC
00
38
ENDCHAR
STARTCHAR char7775
ENCODING 7775
SWIDTH 384 0
DWIDTH 4 0
BBX 4 8 0 -2
BITMAP
B0
E0
C0
C0
C0
C0
00
E0
ENDCHAR
STARTCHAR char7776
ENCODING 7776
SWIDTH 672 0
DWIDTH 7 0
BBX 6 10 0 0
BITMAP
20
00
78
CC
E0
78
1C
8C
CC
78
ENDCHAR
STARTCHAR char7777
ENCODING 7777
SWIDTH 576 0
DWIDTH 6 0
BBX 5 8 0 0
BITMAP
20
00
70
D8
70
18
D8
70
ENDCHAR
STARTCHAR char7778
ENCODING 7778
SWIDTH 672 0
DWIDTH 7 0
BBX 6 10 0 -2
BITMAP
78
CC
E0
78
1C
8C
CC
78
00
10
ENDCHAR
STARTCHAR char7779
ENCODING 7779
SWIDTH 576 0
DWIDTH 6 0
BBX 5 8 0 -2
BITMAP
70
D8
70
18
D8
70
00
20
ENDCHAR
STARTCHAR char7780
ENCODING 7780
SWIDTH 672 0
DWIDTH 7 0
BBX 6 13 0 0
BITMAP
10
00
10
20
00
78
CC
E0
78
1C
8C
CC
78
ENDCHAR
STARTCHAR char7781
ENCODING 7781
SWIDTH 576 0
DWIDTH 6 0
BBX 5 11 0 0
BITMAP
20
00
10
20
00
70
D8
70
18
D8
70
ENDCHAR
STARTCHAR char7782
ENCODING 7782
SWIDTH 672 0
DWIDTH 7 0
BBX 6 11 0 0
BITMAP
10
00
28
10
00
78
CC
70
3C
CC
78
ENDCHAR
STARTCHAR char7783
ENCODING 7783
SWIDTH 576 0
DWIDTH 6 0
BBX 5 11 0 0
BITMAP
20
00
50
20
00
70
D8
70
18
D8
70
ENDCHAR
STARTCHAR char7784
ENCODING 7784
SWIDTH 672 0
DWIDTH 7 0
BBX 6 12 0 -2
BITMAP
20
00
78
CC
E0
78
1C
8C
CC
78
00
10
ENDCHAR
STARTCHAR char7785
ENCODING 7785
SWIDTH 576 0
DWIDTH 6 0
BBX 5 10 0 -2
BITMAP
20
00
70
D8
70
18
D8
70
00
20
ENDCHAR
STARTCHAR char7786
ENCODING 7786
SWIDTH 672 0
DWIDTH 7 0
BBX 6 10 0 0
BITMAP
10
00
FC
30
30
30
30
30
30
30
ENDCHAR
STARTCHAR char7787
ENCODING 7787
SWIDTH 384 0
DWIDTH 4 0
BBX 3 10 0 0
BITMAP
40
00
C0
C0
E0
C0
C0
C0
C0
60
ENDCHAR
STARTCHAR char7788
ENCODING 7788
SWIDTH 672 0
DWIDTH 7 0
BBX 6 10 0 -2
BITMAP
FC
30
30
30
30
30
30
30
00
10
ENDCHAR
STARTCHAR char7789
ENCODING 7789
SWIDTH 384 0
DWIDTH 4 0
BBX 3 10 0 -2
BITMAP
C0
C0
E0
C0
C0
C0
C0
60
00
40
ENDCHAR
STARTCHAR char7790
ENCODING 7790
SWIDTH 672 0
DWIDTH 7 0
BBX 6 10 0 -2
BITMAP
FC
30
30
30
30
30
30
30
00
38
ENDCHAR
STARTCHAR char7791
ENCODING 7791
SWIDTH 384 0
DWIDTH 4 0
BBX 3 10 0 -2
BITMAP
C0
C0
E0
C0
C0
C0
C0
60
00
E0
ENDCHAR
STARTCHAR char7792
ENCODING 7792
SWIDTH 672 0
DWIDTH 7 0
BBX 6 11 0 -3
BITMAP
FC
30
30
30
30
30
30
30
00
10
28
ENDCHAR
STARTCHAR char7793
ENCODING 7793
SWIDTH 384 0
DWIDTH 4 0
BBX 3 11 0 -3
BITMAP
C0
C0
E0
C0
C0
C0
C0
60
00
40
A0
ENDCHAR
STARTCHAR char7794
ENCODING 7794
SWIDTH 672 0
DWIDTH 7 0
BBX 6 10 0 -2
BITMAP
CC
CC
CC
CC
CC
CC
CC
78
00
28
ENDCHAR
STARTCHAR char7795
ENCODING 7795
SWIDTH 576 0
DWIDTH 6 0
BBX 5 8 0 -2
BITMAP
D8
D8
D8
D8
D8
68
00
50
ENDCHAR
STARTCHAR char7796
ENCODING 7796
SWIDTH 672 0
DWIDTH 7 0
BBX 6 11 0 -3
BITMAP
CC
CC
CC
CC
CC
CC
CC
78
00
28
50
ENDCHAR
STARTCHAR char7797
ENCODING 7797
SWIDTH 576 0
DWIDTH 6 0
BBX 5 9 0 -3
BITMAP
D8
D8
D8
D8
D8
68
00
50
A0
ENDCHAR
STARTCHAR char7798
ENCODING 7798
SWIDTH 672 0
DWIDTH 7 0
BBX 6 11 0 -3
BITMAP
CC
CC
CC
CC
CC
CC
CC
78
00
10
28
ENDCHAR
STARTCHAR char7799
ENCODING 7799
SWIDTH 576 0
DWIDTH 6 0
BBX 5 9 0 -3
BITMAP
D8
D8
D8
D8
D8
68
00
20
50
ENDCHAR
STARTCHAR char7800
ENCODING 7800
SWIDTH 672 0
DWIDTH 7 0
BBX 6 14 0 0
BITMAP
10
20
00
28
50
00
CC
CC
CC
CC
CC
CC
CC
78
ENDCHAR
STARTCHAR char7801
ENCODING 7801
SWIDTH 576 0
DWIDTH 6 0
BBX 5 12 0 0
BITMAP
10
20
00
28
50
00
D8
D8
D8
D8
D8
68
ENDCHAR
STARTCHAR char7802
ENCODING 7802
SWIDTH 672 0
DWIDTH 7 0
BBX 6 12 0 0
BITMAP
28
00
38
00
CC
CC
CC
CC
CC
CC
CC
78
ENDCHAR
STARTCHAR char7803
ENCODING 7803
SWIDTH 576 0
DWIDTH 6 0
BBX 5 10 0 0
BITMAP
50
00
70
00
D8
D8
D8
D8
D8
68
ENDCHAR
STARTCHAR char7804
ENCODING 7804
SWIDTH 768 0
DWIDTH 8 0
BBX 7 11 0 0
BITMAP
14
28
00
C6
C6
6C
6C
6C
38
38
10
ENDCHAR
STARTCHAR char7805
ENCODING 7805
SWIDTH 576 0
DWIDTH 6 0
BBX 5 9 0 0
BITMAP
28
50
00
D8
D8
D8
50
70
20
ENDCHAR
STARTCHAR char7806
ENCODING 7806
SWIDTH 768 0
DWIDTH 8 0
BBX 7 10 0 -2
BITMAP
C6
C6
6C
6C
6C
38
38
10
00
10
ENDCHAR
STARTCHAR char7807
ENCODING 7807
SWIDTH 576 0
DWIDTH 6 0
BBX 5 8 0 -2
BITMAP
D8
D8
D8
50
70
20
00
20
ENDCHAR
STARTCHAR char7808
ENCODING 7808
SWIDTH 1056 0
DWIDTH 11 0
BBX 10 11 0 0
BITMAP
0800
0400
0000
CCC0
CCC0
CCC0
6D80
6D80
7F80
3300
2100
ENDCHAR
STARTCHAR char7809
ENCODING 7809
SWIDTH 768 0
DWIDTH 8 0
BBX 7 9 0 0
BITMAP
20
10
00
D6
D6
D6
6C
6C
6C
ENDCHAR
STARTCHAR char7810
ENCODING 7810
SWIDTH 1056 0
DWIDTH 11 0
BBX 10 11 0 0
BITMAP
0400
0800
0000
CCC0
CCC0
CCC0
6D80
6D80
7F80
3300
2100
ENDCHAR
STARTCHAR char7811
ENCODING 7811
SWIDTH 768 0
DWIDTH 8 0
BBX 7 9 0 0
BITMAP
08
10
00
D6
D6
D6
6C
6C
6C
ENDCHAR
STARTCHAR char7812
ENCODING 7812
SWIDTH 1056 0
DWIDTH 11 0
BBX 10 10 0 0
BITMAP
0A00
0000
CCC0
CCC0
CCC0
6D80
6D80
7F80
3300
2100
ENDCHAR
STARTCHAR char7813
ENCODING 7813
SWIDTH 768 0
DWIDTH 8 0
BBX 7 8 0 0
BITMAP
28
00
D6
D6
D6
6C
6C
6C
ENDCHAR
STARTCHAR char7814
ENCODING 7814
SWIDTH 1056 0
DWIDTH 11 0
BBX 10 10 0 0
BITMAP
0400
0000
CCC0
CCC0
CCC0
6D80
6D80
7F80
3300
2100
ENDCHAR
STARTCHAR char7815
ENCODING 7815
SWIDTH 768 0
DWIDTH 8 0
BBX 7 8 0 0
BITMAP
10
00
D6
D6
D6
6C
6C
6C
ENDCHAR
STARTCHAR char7816
ENCODING 7816
SWIDTH 1056 0
DWIDTH 11 0
BBX 10 10 0 -2
BITMAP
CCC0
CCC0
CCC0
6D80
6D80
7F80
3300
2100
0000
0400
ENDCHAR
STARTCHAR char7817
ENCODING 7817
SWIDTH 768 0
DWIDTH 8 0
BBX 7 8 0 -2
BITMAP
D6
D6
D6
6C
6C
6C
00
10
ENDCHAR
STARTCHAR char7818
ENCODING 7818
SWIDTH 768 0
DWIDTH 8 0
BBX 7 10 0 0
BITMAP
10
00
C6
C6
6C
38
38
6C
C6
C6
ENDCHAR
STARTCHAR char7819
ENCODING 7819
SWIDTH 672 0
DWIDTH 7 0
BBX 6 8 0 0
BITMAP
10
00
CC
78
30
78
CC
CC
ENDCHAR
STARTCHAR char7820
ENCODING 7820
SWIDTH 768 0
DWIDTH 8 0
BBX 7 10 0 0
BITMAP
28
00
C6
C6
6C
38
38
6C
C6
C6
ENDCHAR
STARTCHAR char7821
ENCODING 7821
SWIDTH 672 0
DWIDTH 7 0
BBX 6 8 0 0
BITMAP
28
00
CC
78
30
78
CC
CC
ENDCHAR
STARTCHAR char7822
ENCODING 7822
SWIDTH 864 0
DWIDTH 9 0
BBX 8 10 0 0
BITMAP
08
00
C3
C3
66
66
3C
18
18
18
ENDCHAR
STARTCHAR char7823
ENCODING 7823
SWIDTH 576 0
DWIDTH 6 0
BBX 5 10 0 -2
BITMAP
20
00
D8
D8
D8
D8
78
30
30
60
ENDCHAR
STARTCHAR char7824
ENCODING 7824
SWIDTH 672 0
DWIDTH 7 0
BBX 6 11 0 0
BITMAP
10
28
00
FC
0C
18
30
70
60
C0
FC
ENDCHAR
STARTCHAR char7825
ENCODING 7825
SWIDTH 576 0
DWIDTH 6 0
BBX 5 9 0 0
BITMAP
20
50
00
F8
18
30
60
C0
F8
ENDCHAR
STARTCHAR char7826
ENCODING 7826
SWIDTH 672 0
DWIDTH 7 0
BBX 6 10 0 -2
BITMAP
FC
0C
18
30
70
60
C0
FC
00
20
ENDCHAR
STARTCHAR char7827
ENCODING 7827
SWIDTH 576 0
DWIDTH 6 0
BBX 5 8 0 -2
BITMAP
F8
18
30
60
C0
F8
00
20
ENDCHAR
STARTCHAR char7828
ENCODING 7828
SWIDTH 672 0
DWIDTH 7 0
BBX 6 10 0 -2
BITMAP
FC
0C
18
30
70
60
C0
FC
00
70
ENDCHAR
STARTCHAR char7829
ENCODING 7829
SWIDTH 576 0
DWIDTH 6 0
BBX 5 8 0 -2
BITMAP
F8
18
30
60
C0
F8
00
70
ENDCHAR
STARTCHAR char7830
ENCODING 7830
SWIDTH 576 0
DWIDTH 6 0
BBX 5 10 0 -2
BITMAP
C0
C0
F0
D8
D8
D8
D8
D8
00
70
ENDCHAR
STARTCHAR char7831
ENCODING 7831
SWIDTH 384 0
DWIDTH 4 0
BBX 3 10 0 0
BITMAP
A0
00
C0
C0
E0
C0
C0
C0
C0
60
ENDCHAR
STARTCHAR char7832
ENCODING 7832
SWIDTH 768 0
DWIDTH 8 0
BBX 7 10 0 0
BITMAP
10
28
10
00
D6
D6
D6
6C
6C
6C
ENDCHAR
STARTCHAR char7833
ENCODING 7833
SWIDTH 576 0
DWIDTH 6 0
BBX 5 12 0 -2
BITMAP
20
50
20
00
D8
D8
D8
D8
78
30
30
60
ENDCHAR
STARTCHAR char7840
ENCODING 7840
SWIDTH 768 0
DWIDTH 8 0
BBX 7 10 0 -2
BITMAP
38
38
6C
6C
6C
FE
C6
C6
00
10
ENDCHAR
STARTCHAR char7841
ENCODING 7841
SWIDTH 576 0
DWIDTH 6 0
BBX 6 8 0 -2
BITMAP
70
98
78
D8
D8
6C
00
10
ENDCHAR
STARTCHAR char7844
ENCODING 7844
SWIDTH 768 0
DWIDTH 8 0
BBX 7 14 0 0
BITMAP
08
10
00
10
28
00
38
38
6C
6C
6C
FE
C6
C6
ENDCHAR
STARTCHAR char7845
ENCODING 7845
SWIDTH 576 0
DWIDTH 6 0
BBX 6 12 0 0
BITMAP
10
20
00
30
68
00
70
98
78
D8
D8
6C
ENDCHAR
STARTCHAR char7846
ENCODING 7846
SWIDTH 768 0
DWIDTH 8 0
BBX 7 14 0 0
BITMAP
20
10
00
10
28
00
38
38
6C
6C
6C
FE
C6
C6
ENDCHAR
STARTCHAR char7847
ENCODING 7847
SWIDTH 576 0
DWIDTH 6 0
BBX 6 12 0 0
BITMAP
20
10
00
30
68
00
70
98
78
D8
D8
6C
ENDCHAR
STARTCHAR char7850
ENCODING 7850
SWIDTH 768 0
DWIDTH 8 0
BBX 7 14 0 0
BITMAP
14
28
00
10
28
00
38
38
6C
6C
6C
FE
C6
C6
ENDCHAR
STARTCHAR char7851
ENCODING 7851
SWIDTH 576 0
DWIDTH 6 0
BBX 6 12 0 0
BITMAP
28
50
00
30
68
00
70
98
78
D8
D8
6C
ENDCHAR
STARTCHAR char7852
ENCODING 7852
SWIDTH 768 0
DWIDTH 8 0
BBX 7 13 0 -2
BITMAP
10
28
00
38
38
6C
6C
6C
FE
C6
C6
00
10
ENDCHAR
STARTCHAR char7853
ENCODING 7853
SWIDTH 576 0
DWIDTH 6 0
BBX 6 11 0 -2
BITMAP
20
50
00
70
98
78
D8
D8
6C
00
10
ENDCHAR
STARTCHAR char7854
ENCODING 7854
SWIDTH 768 0
DWIDTH 8 0
BBX 7 14 0 0
BITMAP
08
10
00
24
18
00
38
38
6C
6C
6C
FE
C6
C6
ENDCHAR
STARTCHAR char7855
ENCODING 7855
SWIDTH 576 0
DWIDTH 6 0
BBX 6 12 0 0
BITMAP
10
20
00
48
30
00
70
98
78
D8
D8
6C
ENDCHAR
STARTCHAR char7856
ENCODING 7856
SWIDTH 768 0
DWIDTH 8 0
BBX 7 14 0 0
BITMAP
10
08
00
24
18
00
38
38
6C
6C
6C
FE
C6
C6
ENDCHAR
STARTCHAR char7857
ENCODING 7857
SWIDTH 576 0
DWIDTH 6 0
BBX 6 12 0 0
BITMAP
20
10
00
48
30
00
70
98
78
D8
D8
6C
ENDCHAR
STARTCHAR char7860
ENCODING 7860
SWIDTH 768 0
DWIDTH 8 0
BBX 7 14 0 0
BITMAP
14
28
00
24
18
00
38
38
6C
6C
6C
FE
C6
C6
ENDCHAR
STARTCHAR char7861
ENCODING 7861
SWIDTH 576 0
DWIDTH 6 0
BBX 6 12 0 0
BITMAP
28
50
00
48
30
00
70
98
78
D8
D8
6C
ENDCHAR
STARTCHAR char7862
ENCODING 7862
SWIDTH 768 0
DWIDTH 8 0
BBX 7 13 0 -2
BITMAP
24
18
00
38
38
6C
6C
6C
FE
C6
C6
00
10
ENDCHAR
STARTCHAR char7863
ENCODING 7863
SWIDTH 576 0
DWIDTH 6 0
BBX 6 11 0 -2
BITMAP
48
30
00
70
98
78
D8
D8
6C
00
10
ENDCHAR
STARTCHAR char7864
ENCODING 7864
SWIDTH 576 0
DWIDTH 6 0
BBX 5 10 0 -2
BITMAP
F8
C0
C0
F8
C0
C0
C0
F8
00
20
ENDCHAR
STARTCHAR char7865
ENCODING 7865
SWIDTH 576 0
DWIDTH 6 0
BBX 5 8 0 -2
BITMAP
70
D8
F8
C0
D8
70
00
20
ENDCHAR
STARTCHAR char7868
ENCODING 7868
SWIDTH 576 0
DWIDTH 6 0
BBX 5 11 0 0
BITMAP
50
A0
00
F8
C0
C0
F8
C0
C0
C0
F8
ENDCHAR
STARTCHAR char7869
ENCODING 7869
SWIDTH 576 0
DWIDTH 6 0
BBX 5 9 0 0
BITMAP
28
50
00
70
D8
F8
C0
D8
70
ENDCHAR
STARTCHAR char7870
ENCODING 7870
SWIDTH 576 0
DWIDTH 6 0
BBX 5 14 0 0
BITMAP
10
20
00
20
50
00
F8
C0
C0
F8
C0
C0
C0
F8
ENDCHAR
STARTCHAR char7871
ENCODING 7871
SWIDTH 576 0
DWIDTH 6 0
BBX 5 12 0 0
BITMAP
10
20
00
20
50
00
70
D8
F8
C0
D8
70
ENDCHAR
STARTCHAR char7872
ENCODING 7872
SWIDTH 576 0
DWIDTH 6 0
BBX 5 14 0 0
BITMAP
40
20
00
20
50
00
F8
C0
C0
F8
C0
C0
C0
F8
ENDCHAR
STARTCHAR char7873
ENCODING 7873
SWIDTH 576 0
DWIDTH 6 0
BBX 5 12 0 0
BITMAP
40
20
00
20
50
00
70
D8
F8
C0
D8
70
ENDCHAR
STARTCHAR char7876
ENCODING 7876
SWIDTH 576 0
DWIDTH 6 0
BBX 5 14 0 0
BITMAP
28
50
00
20
50
00
F8
C0
C0
F8
C0
C0
C0
F8
ENDCHAR
STARTCHAR char7877
ENCODING 7877
SWIDTH 576 0
DWIDTH 6 0
BBX 5 12 0 0
BITMAP
28
50
00
20
50
00
70
D8
F8
C0
D8
70
ENDCHAR
STARTCHAR char7878
ENCODING 7878
SWIDTH 576 0
DWIDTH 6 0
BBX 5 13 0 -2
BITMAP
20
50
00
F8
C0
C0
F8
C0
C0
C0
F8
00
20
ENDCHAR
STARTCHAR char7879
ENCODING 7879
SWIDTH 576 0
DWIDTH 6 0
BBX 5 11 0 -2
BITMAP
20
50
00
70
D8
F8
C0
D8
70
00
20
ENDCHAR
STARTCHAR char7882
ENCODING 7882
SWIDTH 288 0
DWIDTH 3 0
BBX 2 10 0 -2
BITMAP
C0
C0
C0
C0
C0
C0
C0
C0
00
40
ENDCHAR
STARTCHAR char7883
ENCODING 7883
SWIDTH 288 0
DWIDTH 3 0
BBX 2 10 0 -2
BITMAP
C0
00
C0
C0
C0
C0
C0
C0
00
40
ENDCHAR
STARTCHAR char7884
ENCODING 7884
SWIDTH 768 0
DWIDTH 8 0
BBX 7 10 0 -2
BITMAP
38
6C
C6
C6
C6
C6
6C
38
00
10
ENDCHAR
STARTCHAR char7885
ENCODING 7885
SWIDTH 576 0
DWIDTH 6 0
BBX 5 8 0 -2
BITMAP
70
D8
D8
D8
D8
70
00
20
ENDCHAR
STARTCHAR char7888
ENCODING 7888
SWIDTH 768 0
DWIDTH 8 0
BBX 7 14 0 0
BITMAP
08
10
00
10
28
00
38
6C
C6
C6
C6
C6
6C
38
ENDCHAR
STARTCHAR char7889
ENCODING 7889
SWIDTH 576 0
DWIDTH 6 0
BBX 5 12 0 0
BITMAP
10
20
00
20
50
00
70
D8
D8
D8
D8
70
ENDCHAR
STARTCHAR char7890
ENCODING 7890
SWIDTH 768 0
DWIDTH 8 0
BBX 7 14 0 0
BITMAP
20
10
00
10
28
00
38
6C
C6
C6
C6
C6
6C
38
ENDCHAR
STARTCHAR char7891
ENCODING 7891
SWIDTH 576 0
DWIDTH 6 0
BBX 5 12 0 0
BITMAP
40
20
00
20
50
00
70
D8
D8
D8
D8
70
ENDCHAR
STARTCHAR char7894
ENCODING 7894
SWIDTH 768 0
DWIDTH 8 0
BBX 7 14 0 0
BITMAP
14
28
00
10
28
00
38
6C
C6
C6
C6
C6
6C
38
ENDCHAR
STARTCHAR char7895
ENCODING 7895
SWIDTH 576 0
DWIDTH 6 0
BBX 5 12 0 0
BITMAP
28
50
00
20
50
00
70
D8
D8
D8
D8
70
ENDCHAR
STARTCHAR char7896
ENCODING 7896
SWIDTH 768 0
DWIDTH 8 0
BBX 7 13 0 -2
BITMAP
10
28
00
38
6C
C6
C6
C6
C6
6C
38
00
10
ENDCHAR
STARTCHAR char7897
ENCODING 7897
SWIDTH 576 0
DWIDTH 6 0
BBX 5 11 0 -2
BITMAP
20
50
00
70
D8
D8
D8
D8
70
00
20
ENDCHAR
STARTCHAR char7898
ENCODING 7898
SWIDTH 768 0
DWIDTH 8 0
BBX 9 11 0 0
BITMAP
0400
0800
0000
3980
6C80
C700
C600
C600
C600
6C00
3800
ENDCHAR
STARTCHAR char7899
ENCODING 7899
SWIDTH 576 0
DWIDTH 6 0
BBX 7 9 0 0
BITMAP
08
10
00
76
DA
DC
D8
D8
70
ENDCHAR
STARTCHAR char7900
ENCODING 7900
SWIDTH 768 0
DWIDTH 8 0
BBX 9 11 0 0
BITMAP
1000
0800
0000
3980
6C80
C700
C600
C600
C600
6C00
3800
ENDCHAR
STARTCHAR char7901
ENCODING 7901
SWIDTH 576 0
DWIDTH 6 0
BBX 7 9 0 0
BITMAP
20
10
00
76
DA
DC
D8
D8
70
ENDCHAR
STARTCHAR char7904
ENCODING 7904
SWIDTH 768 0
DWIDTH 8 0
BBX 9 11 0 0
BITMAP
0A00
1400
0000
3980
6C80
C700
C600
C600
C600
6C00
3800
ENDCHAR
STARTCHAR char7905
ENCODING 7905
SWIDTH 576 0
DWIDTH 6 0
BBX 7 9 0 0
BITMAP
14
28
00
76
DA
DC
D8
D8
70
ENDCHAR
STARTCHAR char7906
ENCODING 7906
SWIDTH 768 0
DWIDTH 8 0
BBX 9 10 0 -2
BITMAP
3980
6C80
C700
C600
C600
C600
6C00
3800
0000
1000
ENDCHAR
STARTCHAR char7907
ENCODING 7907
SWIDTH 576 0
DWIDTH 6 0
BBX 7 8 0 -2
BITMAP
76
DA
DC
D8
D8
70
00
20
ENDCHAR
STARTCHAR char7908
ENCODING 7908
SWIDTH 672 0
DWIDTH 7 0
BBX 6 10 0 -2
BITMAP
CC
CC
CC
CC
CC
CC
CC
78
00
10
ENDCHAR
STARTCHAR char7909
ENCODING 7909
SWIDTH 576 0
DWIDTH 6 0
BBX 5 8 0 -2
BITMAP
D8
D8
D8
D8
D8
68
00
20
ENDCHAR
STARTCHAR char7912
ENCODING 7912
SWIDTH 672 0
DWIDTH 7 0
BBX 8 11 0 0
BITMAP
08
10
00
CF
CD
CE
CC
CC
CC
CC
78
ENDCHAR
STARTCHAR char7913
ENCODING 7913
SWIDTH 576 0
DWIDTH 6 0
BBX 7 9 0 0
BITMAP
08
10
00
DE
DA
DC
D8
D8
68
ENDCHAR
STARTCHAR char7914
ENCODING 7914
SWIDTH 672 0
DWIDTH 7 0
BBX 8 11 0 0
BITMAP
10
08
00
CF
CD
CE
CC
CC
CC
CC
78
ENDCHAR
STARTCHAR char7915
ENCODING 7915
SWIDTH 576 0
DWIDTH 6 0
BBX 7 9 0 0
BITMAP
20
10
00
DE
DA
DC
D8
D8
68
ENDCHAR
STARTCHAR char7918
ENCODING 7918
SWIDTH 672 0
DWIDTH 7 0
BBX 8 11 0 0
BITMAP
14
28
00
CF
CD
CE
CC
CC
CC
CC
78
ENDCHAR
STARTCHAR char7919
ENCODING 7919
SWIDTH 576 0
DWIDTH 6 0
BBX 7 9 0 0
BITMAP
14
28
00
DE
DA
DC
D8
D8
68
ENDCHAR
STARTCHAR char7920
ENCODING 7920
SWIDTH 672 0
DWIDTH 7 0
BBX 8 10 0 -2
BITMAP
CF
CD
CE
CC
CC
CC
CC
78
00
10
ENDCHAR
STARTCHAR char7921
ENCODING 7921
SWIDTH 576 0
DWIDTH 6 0
BBX 7 8 0 -2
BITMAP
DE
DA
DC
D8
D8
68
00
20
ENDCHAR
STARTCHAR char7922
ENCODING 7922
SWIDTH 864 0
DWIDTH 9 0
BBX 8 11 0 0
BITMAP
10
08
00
C3
C3
66
66
3C
18
18
18
ENDCHAR
STARTCHAR char7923
ENCODING 7923
SWIDTH 576 0
DWIDTH 6 0
BBX 5 11 0 -2
BITMAP
40
20
00
D8
D8
D8
D8
78
30
30
60
ENDCHAR
STARTCHAR char7924
ENCODING 7924
SWIDTH 864 0
DWIDTH 9 0
BBX 8 10 0 -2
BITMAP
C3
C3
66
66
3C
18
18
18
00
08
ENDCHAR
STARTCHAR char7925
ENCODING 7925
SWIDTH 576 0
DWIDTH 6 0
BBX 5 10 0 -4
BITMAP
D8
D8
D8
D8
78
30
30
60
00
20
ENDCHAR
STARTCHAR char7928
ENCODING 7928
SWIDTH 864 0
DWIDTH 9 0
BBX 8 11 0 0
BITMAP
14
28
00
C3
C3
66
66
3C
18
18
18
ENDCHAR
STARTCHAR char7929
ENCODING 7929
SWIDTH 576 0
DWIDTH 6 0
BBX 5 11 0 -2
BITMAP
28
50
00
D8
D8
D8
D8
78
30
30
60
ENDCHAR
STARTCHAR char8192
ENCODING 8192
SWIDTH 480 0
DWIDTH 5 0
BBX 0 0 0 0
BITMAP
ENDCHAR
STARTCHAR char8193
ENCODING 8193
SWIDTH 960 0
DWIDTH 10 0
BBX 0 0 0 0
BITMAP
ENDCHAR
STARTCHAR char8194
ENCODING 8194
SWIDTH 480 0
DWIDTH 5 0
BBX 0 0 0 0
BITMAP
ENDCHAR
STARTCHAR char8195
ENCODING 8195
SWIDTH 960 0
DWIDTH 10 0
BBX 0 0 0 0
BITMAP
ENDCHAR
STARTCHAR char8196
ENCODING 8196
SWIDTH 288 0
DWIDTH 3 0
BBX 0 0 0 0
BITMAP
ENDCHAR
STARTCHAR char8197
ENCODING 8197
SWIDTH 288 0
DWIDTH 3 0
BBX 0 0 0 0
BITMAP
ENDCHAR
STARTCHAR char8198
ENCODING 8198
SWIDTH 192 0
DWIDTH 2 0
BBX 0 0 0 0
BITMAP
ENDCHAR
STARTCHAR char8199
ENCODING 8199
SWIDTH 576 0
DWIDTH 6 0
BBX 0 0 0 0
BITMAP
ENDCHAR
STARTCHAR char8200
ENCODING 8200
SWIDTH 288 0
DWIDTH 3 0
BBX 0 0 0 0
BITMAP
ENDCHAR
STARTCHAR char8201
ENCODING 8201
SWIDTH 192 0
DWIDTH 2 0
BBX 0 0 0 0
BITMAP
ENDCHAR
STARTCHAR char8202
ENCODING 8202
SWIDTH 96 0
DWIDTH 1 0
BBX 0 0 0 0
BITMAP
ENDCHAR
STARTCHAR char8203
ENCODING 8203
SWIDTH 0 0
DWIDTH 0 0
BBX 0 0 0 0
BITMAP
ENDCHAR
STARTCHAR char8208
ENCODING 8208
SWIDTH 480 0
DWIDTH 5 0
BBX 4 1 0 3
BITMAP
F0
ENDCHAR
STARTCHAR char8209
ENCODING 8209
SWIDTH 480 0
DWIDTH 5 0
BBX 4 1 0 3
BITMAP
F0
ENDCHAR
STARTCHAR char8210
ENCODING 8210
SWIDTH 576 0
DWIDTH 6 0
BBX 6 1 0 3
BITMAP
FC
ENDCHAR
STARTCHAR char8211
ENCODING 8211
SWIDTH 576 0
DWIDTH 6 0
BBX 6 1 0 3
BITMAP
FC
ENDCHAR
STARTCHAR char8212
ENCODING 8212
SWIDTH 960 0
DWIDTH 10 0
BBX 10 1 0 3
BITMAP
FFC0
ENDCHAR
STARTCHAR char8213
ENCODING 8213
SWIDTH 960 0
DWIDTH 10 0
BBX 10 1 0 3
BITMAP
FFC0
ENDCHAR
STARTCHAR char8216
ENCODING 8216
SWIDTH 288 0
DWIDTH 3 0
BBX 2 3 0 5
BITMAP
40
80
C0
ENDCHAR
STARTCHAR char8217
ENCODING 8217
SWIDTH 288 0
DWIDTH 3 0
BBX 2 3 0 5
BITMAP
C0
40
80
ENDCHAR
STARTCHAR char8218
ENCODING 8218
SWIDTH 288 0
DWIDTH 3 0
BBX 2 3 0 -2
BITMAP
C0
40
80
ENDCHAR
STARTCHAR char8219
ENCODING 8219
SWIDTH 288 0
DWIDTH 3 0
BBX 2 3 0 5
BITMAP
C0
80
40
ENDCHAR
STARTCHAR char8220
ENCODING 8220
SWIDTH 576 0
DWIDTH 6 0
BBX 5 3 0 5
BITMAP
48
90
D8
ENDCHAR
STARTCHAR char8221
ENCODING 8221
SWIDTH 576 0
DWIDTH 6 0
BBX 5 3 0 5
BITMAP
D8
48
90
ENDCHAR
STARTCHAR char8222
ENCODING 8222
SWIDTH 576 0
DWIDTH 6 0
BBX 5 3 0 -2
BITMAP
D8
48
90
ENDCHAR
STARTCHAR char8223
ENCODING 8223
SWIDTH 576 0
DWIDTH 6 0
BBX 5 3 0 5
BITMAP
D8
90
48
ENDCHAR
STARTCHAR char8224
ENCODING 8224
SWIDTH 672 0
DWIDTH 7 0
BBX 6 10 0 -2
BITMAP
30
30
FC
30
30
30
30
30
30
30
ENDCHAR
STARTCHAR char8225
ENCODING 8225
SWIDTH 672 0
DWIDTH 7 0
BBX 6 10 0 -2
BITMAP
30
30
FC
30
30
30
FC
30
30
30
ENDCHAR
STARTCHAR char8226
ENCODING 8226
SWIDTH 384 0
DWIDTH 4 0
BBX 2 2 1 2
BITMAP
C0
C0
ENDCHAR
STARTCHAR char8230
ENCODING 8230
SWIDTH 960 0
DWIDTH 10 0
BBX 8 1 1 0
BITMAP
DB
ENDCHAR
STARTCHAR char8240
ENCODING 8240
SWIDTH 1056 0
DWIDTH 11 0
BBX 10 7 0 0
BITMAP
6200
B400
6800
1000
2D80
56C0
8D80
ENDCHAR
STARTCHAR char8249
ENCODING 8249
SWIDTH 480 0
DWIDTH 5 0
BBX 3 3 1 1
BITMAP
60
C0
60
ENDCHAR
STARTCHAR char8250
ENCODING 8250
SWIDTH 480 0
DWIDTH 5 0
BBX 3 3 1 1
BITMAP
C0
60
C0
ENDCHAR
STARTCHAR char8260
ENCODING 8260
SWIDTH 384 0
DWIDTH 4 0
BBX 5 7 -1 0
BITMAP
08
10
10
20
40
40
80
ENDCHAR
STARTCHAR char8321
ENCODING 8321
SWIDTH 288 0
DWIDTH 3 0
BBX 2 4 0 -2
BITMAP
40
C0
40
40
ENDCHAR
STARTCHAR char8322
ENCODING 8322
SWIDTH 288 0
DWIDTH 3 0
BBX 3 4 0 -2
BITMAP
60
A0
40
E0
ENDCHAR
STARTCHAR char8323
ENCODING 8323
SWIDTH 288 0
DWIDTH 3 0
BBX 3 4 0 -2
BITMAP
E0
40
20
C0
ENDCHAR
STARTCHAR char8357
ENCODING 8357
SWIDTH 864 0
DWIDTH 9 0
BBX 8 8 0 -1
BITMAP
04
B6
DB
DB
DB
DB
FB
20
ENDCHAR
STARTCHAR char8358
ENCODING 8358
SWIDTH 768 0
DWIDTH 8 0
BBX 7 8 0 0
BITMAP
C6
E6
FE
D6
FE
CE
CE
C6
ENDCHAR
STARTCHAR char8361
ENCODING 8361
SWIDTH 1056 0
DWIDTH 11 0
BBX 10 8 0 0
BITMAP
CCC0
CCC0
DFC0
6D80
7F80
7F80
3300
2100
ENDCHAR
STARTCHAR char8364
ENCODING 8364
SWIDTH 768 0
DWIDTH 8 0
BBX 8 8 -1 0
BITMAP
1E
33
F9
60
F8
61
33
1E
ENDCHAR
STARTCHAR char8365
ENCODING 8365
SWIDTH 672 0
DWIDTH 7 0
BBX 7 8 0 0
BITMAP
CC
D8
F0
FE
F0
D8
CC
C6
ENDCHAR
STARTCHAR char8451
ENCODING 8451
SWIDTH 1152 0
DWIDTH 12 0
BBX 10 8 1 0
BITMAP
0780
6CC0
B840
D800
1800
1840
0CC0
0780
ENDCHAR
STARTCHAR char8457
ENCODING 8457
SWIDTH 960 0
DWIDTH 10 0
BBX 8 8 1 0
BITMAP
1F
78
B8
DE
18
18
18
18
ENDCHAR
STARTCHAR char8482
ENCODING 8482
SWIDTH 1056 0
DWIDTH 11 0
BBX 9 4 1 3
BITMAP
E880
4D80
4A80
4A80
ENDCHAR
STARTCHAR char8490
ENCODING 8490
SWIDTH 672 0
DWIDTH 7 0
BBX 7 8 0 0
BITMAP
CC
D8
F0
E0
F0
D8
CC
C6
ENDCHAR
STARTCHAR char8491
ENCODING 8491
SWIDTH 768 0
DWIDTH 8 0
BBX 7 11 0 0
BITMAP
10
28
10
38
38
6C
6C
6C
FE
C6
C6
ENDCHAR
STARTCHAR char8498
ENCODING 8498
SWIDTH 576 0
DWIDTH 6 0
BBX 5 8 0 0
BITMAP
18
18
18
18
78
18
18
F8
ENDCHAR
STARTCHAR char8704
ENCODING 8704
SWIDTH 768 0
DWIDTH 8 0
BBX 7 8 0 0
BITMAP
C6
C6
FE
6C
6C
6C
38
38
ENDCHAR
STARTCHAR char8707
ENCODING 8707
SWIDTH 576 0
DWIDTH 6 0
BBX 5 8 0 0
BITMAP
F8
18
18
F8
18
18
18
F8
ENDCHAR
STARTCHAR char8708
ENCODING 8708
SWIDTH 576 0
DWIDTH 6 0
BBX 5 8 0 0
BITMAP
F8
18
18
F8
38
38
58
F8
ENDCHAR
STARTCHAR char8722
ENCODING 8722
SWIDTH 672 0
DWIDTH 7 0
BBX 5 1 1 3
BITMAP
F8
ENDCHAR
STARTCHAR char8725
ENCODING 8725
SWIDTH 384 0
DWIDTH 4 0
BBX 5 7 -1 0
BITMAP
08
10
10
20
40
40
80
ENDCHAR
STARTCHAR char8729
ENCODING 8729
SWIDTH 288 0
DWIDTH 3 0
BBX 2 1 0 3
BITMAP
C0
ENDCHAR
STARTCHAR char8758
ENCODING 8758
SWIDTH 288 0
DWIDTH 3 0
BBX 1 6 1 0
BITMAP
80
80
00
00
80
80
ENDCHAR
STARTCHAR char8793
ENCODING 8793
SWIDTH 576 0
DWIDTH 6 0
BBX 5 6 0 2
BITMAP
20
50
00
F8
00
F8
ENDCHAR
STARTCHAR char8794
ENCODING 8794
SWIDTH 576 0
DWIDTH 6 0
BBX 5 6 0 2
BITMAP
50
20
00
F8
00
F8
ENDCHAR
STARTCHAR char8800
ENCODING 8800
SWIDTH 576 0
DWIDTH 6 0
BBX 5 8 0 0
BITMAP
08
08
10
F8
20
F8
40
40
ENDCHAR
STARTCHAR char8801
ENCODING 8801
SWIDTH 576 0
DWIDTH 6 0
BBX 5 5 0 1
BITMAP
F8
00
F8
00
F8
ENDCHAR
STARTCHAR char8802
ENCODING 8802
SWIDTH 576 0
DWIDTH 6 0
BBX 5 8 0 0
BITMAP
08
08
F8
10
F8
20
F8
40
ENDCHAR
STARTCHAR char8804
ENCODING 8804
SWIDTH 480 0
DWIDTH 5 0
BBX 4 7 0 -1
BITMAP
30
60
C0
60
30
00
F0
ENDCHAR
STARTCHAR char8805
ENCODING 8805
SWIDTH 480 0
DWIDTH 5 0
BBX 4 7 0 -1
BITMAP
C0
60
30
60
C0
00
F0
ENDCHAR
STARTCHAR char8814
ENCODING 8814
SWIDTH 480 0
DWIDTH 5 0
BBX 4 8 0 0
BITMAP
10
10
30
60
C0
60
B0
80
ENDCHAR
STARTCHAR char8815
ENCODING 8815
SWIDTH 480 0
DWIDTH 5 0
BBX 4 8 0 0
BITMAP
10
10
E0
60
70
60
C0
80
ENDCHAR
STARTCHAR char8816
ENCODING 8816
SWIDTH 480 0
DWIDTH 5 0
BBX 4 8 0 -1
BITMAP
10
30
60
E0
60
70
80
F0
ENDCHAR
STARTCHAR char8817
ENCODING 8817
SWIDTH 480 0
DWIDTH 5 0
BBX 4 8 0 -1
BITMAP
10
D0
60
30
60
C0
80
F0
ENDCHAR
ENDFONT
